<?xml version="1.0" encoding="UTF-8"?>
<svg id="Layer_1" data-name="Layer 1" xmlns="http://www.w3.org/2000/svg" xmlns:xlink="http://www.w3.org/1999/xlink" viewBox="0 0 483.53 148">
  <defs>
    <style>
      .cls-1 {
        fill: none;
      }

      .cls-2 {
        font-family: Roboto-Bold, Roboto;
        font-size: 8px;
        font-variation-settings: 'wght' 700, 'wdth' 100;
      }

      .cls-2, .cls-3 {
        font-weight: 700;
      }

      .cls-2, .cls-4 {
        fill: #e9b347;
      }

      .cls-3 {
        font-family: RalewayRoman-Bold, Raleway;
        font-size: 48px;
        font-variation-settings: 'wght' 700;
      }

      .cls-3, .cls-5 {
        fill: #fff;
      }

      .cls-6 {
        clip-path: url(#clippath-1);
      }

      .cls-7 {
        fill: #002135;
      }

      .cls-8 {
        fill: #007fb2;
        font-family: Roboto-Italic, Roboto;
        font-size: 26px;
        font-style: italic;
        font-variation-settings: 'wght' 400, 'wdth' 100;
      }

      .cls-9 {
        letter-spacing: -.03em;
      }

      .cls-10 {
        letter-spacing: -.02em;
      }

      .cls-11 {
        letter-spacing: -.01em;
      }

      .cls-12 {
        letter-spacing: -.03em;
      }

      .cls-13 {
        letter-spacing: 0em;
      }

      .cls-14 {
        letter-spacing: 0em;
      }

      .cls-15 {
        letter-spacing: 0em;
      }

      .cls-16 {
        clip-path: url(#clippath);
      }

      .cls-17 {
        fill: #e9b347;
      }
    </style>
    <clipPath id="clippath">
      <rect class="cls-1" width="160" height="148"/>
    </clipPath>
    <clipPath id="clippath-1">
      <rect class="cls-1" width="160" height="148"/>
    </clipPath>
  </defs>
  <g>
    <text class="cls-3" transform="translate(160 64.62)"><tspan x="0" y="0">GE </tspan><tspan class="cls-13" x="75.17" y="0">P</tspan><tspan class="cls-10" x="104.73" y="0">a</tspan><tspan x="131.33" y="0">yme</tspan><tspan class="cls-15" x="231.17" y="0">n</tspan><tspan x="260.01" y="0">ts</tspan></text>
    <text class="cls-8" transform="translate(161.92 97.81)"><tspan class="cls-9" x="0" y="0">B</tspan><tspan x="15.02" y="0">Y G</tspan><tspan class="cls-12" x="53.73" y="0">L</tspan><tspan x="66.49" y="0">OBAL ENERGY</tspan></text>
    <g>
      <circle class="cls-4" cx="422.25" cy="109.15" r="13.1"/>
      <path class="cls-5" d="M422.25,96.61s0,0,0,0h0s0,0,0,0c0,0,0,0,0,0,0,0,0,0,0,0,0,0,0,0,0,0,0,0,0,0,0,0,0,0,0,0,0,0,0,0,0,0,0,0,0,0,0,0,0,0,0,0,0,0,0,0h0s0,0,0,0c0,0,0,0,0,0,0,0,0,0,0,0,0,0,0,0,0,0,0,0,0,0,0,0,0,0,0,0,0,0,0,0,0,0,0,0,0,0,0,0,0,0,0,0,0,0,0,0,0,0,0,0,0,0,0,0,0,0,0,0,0,0,0,0,0,0-.01,0-.02,0-.03,0,0,0,0,0,0,0,0,0,0,0,0,0,0,0,0,0,0,0,0,0,0,0,0,0,0,0,0,0,0,0,0,0,0,0,0,0,0,0,0,0,0,0,0,0,0,0,0,0,0,0,0,0,0,0,0,0,0,0,0,0,0,0,0,0,0,0,0,0,0,0,0,0,0,0,0,0,0,0,0,0,0,0,0,0,0,0,0,0,0,0,0,0,0,0,0,0,0,0,0,0,0,0-.12,0-.24,0-.37.01l.04.75c.19,0,.38-.01.56-.01v-.75h0ZM421.05,96.67h0s0,0,0,0c0,0,0,0,0,0,0,0,0,0,0,0,0,0,0,0,0,0,0,0,0,0,0,0,0,0,0,0,0,0,0,0,0,0,0,0,0,0,0,0,0,0,0,0,0,0,0,0-.18.02-.36.04-.54.06t0,0s0,0,0,0c0,0,0,0,0,0,0,0,0,0,0,0l.11.74c.19-.03.37-.05.56-.07l-.07-.75h0ZM419.86,96.84c-.07.01-.14.03-.2.04h0s0,0,0,0c0,0,0,0,0,0,0,0,0,0,0,0,0,0,0,0,0,0,0,0,0,0,0,0,0,0,0,0,0,0,0,0,0,0,0,0,0,0,0,0,0,0,0,0,0,0,0,0,0,0,0,0,0,0,0,0,0,0,0,0,0,0,0,0,0,0,0,0,0,0,0,0-.11.02-.21.05-.32.07l.18.73c.18-.04.37-.08.55-.12l-.14-.74h0ZM418.7,97.12s-.05.02-.08.02c0,0,0,0,0,0,0,0,0,0,0,0,0,0,0,0,0,0,0,0,0,0,0,0h0s0,0,0,0c0,0,0,0,0,0,0,0,0,0,0,0,0,0,0,0,0,0,0,0,0,0,0,0,0,0,0,0,0,0,0,0,0,0,0,0,0,0,0,0,0,0,0,0,0,0,0,0-.15.04-.29.09-.44.14l.25.71c.18-.06.36-.12.54-.17l-.21-.72h0ZM417.56,97.51c-.15.06-.3.12-.45.19,0,0,0,0,0,0,0,0,0,0,0,0,0,0,0,0,0,0h0s0,0,0,0c0,0,0,0,0,0,0,0,0,0,0,0,0,0,0,0,0,0,0,0,0,0,0,0,0,0,0,0,0,0,0,0,0,0,0,0h0s0,0,0,0h0s-.03.01-.05.02l.31.68c.17-.08.34-.15.52-.22l-.28-.7h0ZM416.47,98.01c-.08.04-.17.09-.25.13h0s0,0,0,0c0,0,0,0,0,0,0,0,0,0,0,0,0,0,0,0,0,0h0s0,0,0,0c0,0,0,0,0,0,0,0,0,0,0,0,0,0,0,0,0,0,0,0,0,0,0,0s0,0,0,0c0,0,0,0,0,0,0,0,0,0,0,0,0,0,0,0,0,0,0,0,0,0,0,0,0,0,0,0,0,0,0,0,0,0,0,0,0,0,0,0,0,0,0,0,0,0,0,0,0,0,0,0,0,0,0,0,0,0,0,0-.06.03-.12.07-.18.1,0,0,0,0,0,0,0,0,0,0,0,0l.38.65c.16-.09.33-.19.49-.27l-.35-.67h0ZM415.44,98.62s0,0,0,0c0,0,0,0,0,0,0,0,0,0,0,0,0,0,0,0,0,0,0,0,0,0,0,0,0,0,0,0,0,0,0,0,0,0,0,0,0,0,0,0,0,0,0,0,0,0,0,0,0,0,0,0,0,0h0c-.1.06-.2.13-.3.2,0,0,0,0,0,0,0,0,0,0,0,0-.05.04-.1.07-.15.11l.44.61c.15-.11.31-.22.47-.32l-.41-.63h0ZM414.46,99.32c-.14.11-.27.22-.4.33h0s0,0,0,0h0s0,0,0,0c0,0,0,0,0,0,0,0,0,0,0,0,0,0,0,0,0,0,0,0,0,0,0,0,0,0,0,0,0,0,0,0,0,0,0,0,0,0,0,0,0,0,0,0,0,0,0,0,0,0,0,0,0,0h0s0,0,0,0c0,0,0,0,0,0,0,0,0,0,0,0l.49.56c.14-.12.29-.24.43-.36l-.47-.59h0ZM413.56,100.11c-.08.08-.16.15-.23.23,0,0,0,0,0,0,0,0,0,0,0,0-.06.06-.12.12-.18.19l.54.52c.13-.14.26-.27.4-.4l-.52-.54h0ZM412.73,100.98s-.05.06-.07.09h0s0,0,0,0h0s0,0,0,0c0,0,0,0,0,0,0,0,0,0,0,0,0,0,0,0,0,0,0,0,0,0,0,0,0,0,0,0,0,0,0,0,0,0,0,0,0,0,0,0,0,0,0,0,0,0,0,0,0,0,0,0,0,0h0s0,0,0,0c0,0,0,0,0,0,0,0,0,0,0,0,0,0,0,0,0,0,0,0,0,0,0,0,0,0,0,0,0,0,0,0,0,0,0,0,0,0,0,0,0,0,0,0,0,0,0,0,0,0,0,0,0,0,0,0,0,0,0,0,0,0,0,0,0,0,0,0,0,0,0,0,0,0,0,0,0,0,0,0,0,0,0,0,0,0,0,0,0,0,0,0,0,0,0,0,0,0,0,0,0,0,0,0,0,0,0,0,0,0,0,0,0,0,0,0,0,0,0,0,0,0,0,0,0,0,0,0,0,0,0,0,0,0,0,0,0,0,0,0,0,0,0,0,0,0,0,0,0,0,0,0,0,0,0,0,0,0,0,0,0,0,0,0,0,0,0,0,0,0,0,0,0,0,0,0,0,0,0,0,0,0,0,0,0,0,0,0,0,0,0,0,0,0,0,0,0,0,0,0,0,0,0,0,0,0,0,0,0,0,0,0,0,0,0,0,0,0,0,0,0,0,0,0,0,0,0,0,0,0,0,0,0,0,0,0,0,0,0,0,0,0,0,0,0,0,0,0,0,0,0,0,0,0,0,0,0,0,0,0,0,0,0,0,0,0,0,0,0,0,0,0,0,0,0,0,0,0,0,0,0,0,0,0,0,0,0,0,0,0,0,0,0,0,0,0,0,0,0,0,0,0,0,0,0,0,0,0,0,0,0,0,0,0,0,0,0,0,0,0,0,0,0,0,0,0,0,0,0,0,0,0,0,0,0,0,0,0,0,0,0,0,0,0,0,0,0,0,0,0,0,0,0,0,0,0,0,0,0,0,0,0,0,0,0,0,0,0,0,0,0,0,0,0,0,0,0,0,0,0,0,0,0,0,0,0,0,0,0,0,0,0,0,0,0,0,0,0,0,0,0,0,0,0,0,0,0,0,0,0,0,0,0,0h0s-.04.05-.06.07l.59.46c.12-.15.24-.29.36-.44l-.57-.49h0ZM412,101.92s-.05.07-.08.11c-.06.08-.11.17-.17.25h0s0,0,0,0h0s0,0,0,0c0,0,0,0,0,0,0,0,0,0,0,0,0,0,0,0,0,0,0,0,0,0,0,0,0,0,0,0,0,0,0,0,0,0,0,0,0,0,0,0,0,0,0,0,0,0,0,0,0,0,0,0,0,0,0,0,0,0,0,0,0,0,0,0,0,0,0,0,0,0,0,0,0,0,0,0,0,0,0,0,0,0,0,0,0,0,0,0,0,0,0,0,0,0,0,0,0,0,0,0,0,0,0,0,0,0,0,0-.01.02-.03.04-.04.06l.63.4c.1-.16.21-.31.31-.47l-.61-.43h0ZM411.35,102.93c-.1.17-.19.35-.29.53l.67.34c.09-.17.17-.33.27-.5l-.65-.37h0ZM410.81,104c-.08.18-.16.37-.23.55l.7.27c.07-.18.14-.35.22-.52l-.68-.31h0ZM410.37,105.12c-.04.12-.08.24-.12.37,0,0,0,0,0,0,0,0,0,0,0,0,0,0,0,0,0,0,0,0,0,0,0,0,0,0,0,0,0,0,0,0,0,0,0,0,0,0,0,0,0,0,0,0,0,0,0,0,0,0,0,0,0,0,0,0,0,0,0,0,0,0,0,0,0,0,0,0,0,0,0,0,0,0,0,0,0,0,0,0,0,0,0,0,0,0,0,0,0,0,0,0,0,0,0,0,0,0,0,0,0,0,0,0,0,0,0,0h0s0,0,0,0c0,0,0,0,0,0,0,0,0,0,0,0,0,0,0,0,0,0,0,0,0,0,0,0,0,0,0,0,0,0,0,0,0,0,0,0,0,0,0,0,0,0,0,0,0,0,0,0,0,0,0,0,0,0,0,0,0,0,0,0h0s-.01.04-.02.07l.72.21c.05-.18.11-.36.17-.54l-.71-.24h0ZM410.04,106.27s-.02.08-.03.13c0,0,0,0,0,0,0,0,0,0,0,0,0,0,0,0,0,0,0,0,0,0,0,0,0,0,0,0,0,0,0,0,0,0,0,0,0,0,0,0,0,0,0,0,0,0,0,0,0,0,0,0,0,0,0,0,0,0,0,0,0,0,0,0,0,0,0,0,0,0,0,0,0,0,0,0,0,0,0,0,0,0,0,0,0,0,0,0,0,0,0,0,0,0,0,0,0,0,0,0,0,0,0,0,0,0,0,0,0,0,0,.02,0,.03,0,0,0,0,0,0,0,0,0,0,0,0,0,0,0,0,0,0,0,0,0,0,0,0,0,0,0,0,0,0,0,0,0,0,0,0,0,0,0,0,0,0,0,0,0,0,0,0,0,0,0,0,0,0,0,0,0,0,0,0,0,0,0,0,0,0,0,0,0,0,0,0,0,0,0,0,0,0,0,0,0,0,0,0,0,0,0,0,0,0,0,0,0,0,0,0,0,0,0,0,0,0,0,0,0,0,0,0,0,0,0,0,0,0,0,0,0,0,0,0,0,0,0,0,0,0,0,0,0,0,0,0,0,0,0,0,0,0,0,0,0,0,0,0,0,0,0,0,0,0,0,0,0,0,0,0,0,0,0,0,0,0,0,0,0,0,0,0,0,0,0,0,0,0,0,0,0,0,0,0,0,0,0,0,0,0,0,0,0,0,0,0,0,0,0,0,0,0,0,0,0,0,0,0,0,0,0,0,0,0,0,0,0,0,0,0,0,0,0,0,0,0,0,0,0,0,0,0,0,0,0,0,0,0,0,0,0,0,0,0,0,0,0,0,0,0,0,0,0,0,0,0,0,0,0,0,0,0,0,0,0,0,0,0,0,.01,0,.02,0,.03,0,0,0,0,0,0,0,0,0,0,0,0,0,0,0,0,0,0,0,0,0,0,0,0,0,0,0,0,0,0,0,0,0,0,0,0,0,0,0,0,0,0,0,0,0,0,0,0,0,0,0,0,0,0,0,0,0,0,0,0,0,0,0,0,0,0,0,0,0,0,0,0,0,0,0,0,0,0,0,0,0,0,0,0,0,0,0,0,0,0,0,0,0,0,0,0,0,0,0,0,0,0h0s0,0,0,0c0,0,0,0,0,0,0,0,0,0,0,0,0,0,0,0,0,0,0,0,0,0,0,.01l.74.14c.03-.19.07-.37.12-.55l-.73-.17h0ZM409.82,107.45h0s0,0,0,0h0c-.02.15-.04.3-.05.45h0s0,0,0,0c0,0,0,0,0,0,0,0,0,0,0,0,0,0,0,0,0,0,0,0,0,0,0,0,0,0,0,0,0,0,0,0,0,0,0,0,0,0,0,0,0,0,0,0,0,0,0,0,0,0,0,0,0,0,0,0,0,0,0,0,0,.03,0,.06,0,.09l.75.07c.02-.19.04-.38.06-.56l-.74-.1h0ZM409.71,108.65c0,.06,0,.13,0,.19h0s0,0,0,0c0,0,0,0,0,0h0s0,.02,0,.03c0,0,0,0,0,0,0,0,0,0,0,0,0,0,0,0,0,0,0,0,0,0,0,0,0,0,0,0,0,0,0,0,0,0,0,.01,0,0,0,0,0,0,0,0,0,0,0,0s0,0,0,0c0,0,0,0,0,0,0,0,0,0,0,0,0,0,0,0,0,0,0,0,0,0,0,0,0,0,0,0,0,0,0,0,0,0,0,0h0s0,0,0,0c0,0,0,0,0,0,0,0,0,0,0,0,0,0,0,0,0,0,0,0,0,0,0,0,0,0,0,0,0,0,0,0,0,0,0,0,0,0,0,0,0,0,0,0,0,0,0,0,0,0,0,0,0,0,0,0,0,0,0,0,0,0,0,0,0,0,0,0,0,0,0,0,0,0,0,0,0,0,0,0,0,0,0,0,0,0,0,0,0,0,0,0,0,0,0,0h0s0,0,0,.01h0s0,0,0,0c0,0,0,0,0,0,0,0,0,0,0,0,0,0,0,0,0,0,0,0,0,0,0,0,0,0,0,0,0,0,0,0,0,0,0,0,0,0,0,0,0,0h0s0,0,0,0c0,0,0,0,0,0h0s0,0,0,.01h0s0,.01,0,.01h0v.02h0v.02s0,0,0,0h0s0,.05,0,.07h.75s0-.09,0-.09c0-.16,0-.32,0-.48l-.75-.03h0ZM410.47,109.81l-.75.04c.01.2.03.4.05.6l.75-.08c-.02-.19-.03-.37-.04-.56h0ZM410.59,110.93l-.74.11s.01.07.02.1c0,0,0,0,0,0,0,.01,0,.03,0,.04,0,0,0,0,0,0,0,0,0,0,0,0,0,0,0,0,0,0,0,0,0,0,0,0,0,0,0,0,0,0,0,0,0,0,0,0,0,0,0,0,0,0,0,0,0,0,0,0,0,0,0,0,0,0,0,0,0,0,0,0,0,0,0,0,0,0,0,0,0,0,0,0,0,0,0,0,0,0,0,0,0,0,0,0h0s0,0,0,0c0,0,0,0,0,0,0,0,0,0,0,0,0,0,0,0,0,0,0,0,0,0,0,0,0,0,0,0,0,0,0,0,0,0,0,0,0,0,0,0,0,0,0,0,0,0,0,0,0,0,0,0,0,0,0,0,0,0,0,0,0,0,0,0,0,0h0c.02.11.04.22.06.32l.74-.15c-.04-.18-.07-.37-.1-.56h0ZM410.81,112.03l-.73.18c.05.19.1.39.16.58l.72-.22c-.05-.18-.1-.36-.15-.54h0ZM411.13,113.11l-.71.25s0,0,0,0c0,0,0,0,0,0,0,0,0,0,0,0,0,0,0,0,0,0,0,0,0,0,0,0,0,0,0,0,0,0,0,0,0,0,0,0,0,0,0,0,0,0,0,0,0,0,0,0,0,0,0,0,0,0,0,0,0,0,0,0,0,0,0,0,0,0,0,0,0,0,0,0,0,0,0,0,0,0,0,0,0,0,0,0,0,0,0,0,0,0,0,0,0,0,0,0h0s0,0,0,0c0,0,0,0,0,0,0,0,0,0,0,0,0,0,0,0,0,0,0,0,0,0,0,0,0,0,0,0,0,0,0,0,0,0,0,0,0,0,0,0,0,0,0,0,0,0,0,0,0,0,0,0,0,0,.03.07.06.15.08.22,0,0,0,0,0,0,0,0,0,0,0,0,0,0,0,0,0,0,0,0,0,0,0,0,0,0,0,0,0,0,0,0,0,0,0,0,0,0,0,0,0,0,0,0,0,0,0,0,.02.06.05.12.07.18l.69-.29c-.07-.17-.14-.35-.2-.53h0ZM411.56,114.15l-.68.32c.04.09.09.18.13.27,0,0,0,0,0,0,0,0,0,0,0,0,0,0,0,0,0,0,0,0,0,0,0,0,0,0,0,0,0,0,0,0,0,0,0,0,0,0,0,0,0,0,0,0,0,0,0,0,0,0,0,0,0,0h0s0,0,0,0c0,0,0,0,0,0,0,0,0,0,0,0,0,0,0,0,0,0,0,0,0,0,0,0,0,0,0,0,0,0,0,0,0,0,0,0,0,0,0,0,0,0,0,0,0,0,0,0,0,0,0,0,0,0,0,0,0,0,0,0,0,0,0,0,0,0,0,0,0,0,0,0,0,0,0,0,0,0,0,0,0,0,0,0,0,0,0,0,0,0,0,0,0,0,0,0,0,0,0,0,0,0,0,0,0,0,0,0,0,0,0,0,0,0,.03.05.05.1.08.15l.66-.35c-.09-.17-.17-.33-.25-.5h0ZM412.09,115.15l-.65.38c.08.13.16.27.25.4h0s0,0,0,0c0,0,0,0,0,0,0,0,0,0,0,0,0,0,0,0,0,0,0,0,0,0,0,0,0,0,0,0,0,0,0,0,0,0,0,0,0,0,0,0,0,0,0,0,0,0,0,0,0,0,0,0,0,0,0,0,0,0,0,0,0,0,0,0,0,0,0,0,0,0,0,0,0,0,0,0,0,0,0,0,0,0,0,0,.01.02.02.03.03.05l.63-.41c-.1-.16-.2-.32-.3-.48h0ZM412.71,116.09l-.61.44s0,0,0,0c0,0,0,0,0,0,0,0,0,0,0,0,0,0,0,0,0,0,0,0,0,0,0,0,0,0,0,0,0,0,0,0,0,0,0,0,0,0,0,0,0,0,.11.15.23.3.35.45l.58-.47c-.12-.15-.23-.3-.34-.45h0ZM413.42,116.97l-.56.5h0s0,0,0,0c0,0,0,0,0,0,0,0,0,0,0,0,0,0,0,0,0,0h0s0,0,0,0c0,0,0,0,0,0,0,0,0,0,0,0,0,0,0,0,0,0,0,0,0,0,0,0h0s0,0,0,0c0,0,0,0,0,0,0,0,0,0,0,0,0,0,0,0,0,0,0,0,0,0,0,0,0,0,0,0,0,0,0,0,0,0,0,0,0,0,0,0,0,0,0,0,0,0,0,0,0,0,0,0,0,0,0,0,0,0,0,0h0s0,0,0,0c0,0,0,0,0,0,0,0,0,0,0,0,0,0,0,0,0,0,0,0,0,0,0,0,0,0,0,0,0,0,0,0,0,0,0,0,0,0,0,0,0,0,0,0,0,0,0,0,0,0,0,0,0,0,0,0,0,0,0,0,0,0,0,0,0,0,0,0,0,0,0,0,0,0,0,0,0,0,0,0,0,0,0,0h0s0,0,0,0c0,0,0,0,0,0,0,0,0,0,0,0,0,0,0,0,0,0,0,0,0,0,0,0,0,0,0,0,0,0,.03.04.07.07.1.11,0,0,0,0,0,0,0,0,0,0,0,0t0,0s0,0,0,0c0,0,0,0,0,0,0,0,0,0,0,0,0,0,0,0,0,0,0,0,0,0,0,0,0,0,0,0,0,0,0,0,0,0,0,0,0,0,0,0,0,0,0,0,0,0,0,0,0,0,0,0,0,0,0,0,0,0,0,0,0,0,0,0,0,0,0,0,0,0,0,0,0,0,0,0,0,0,0,0,0,0,0,0h0s0,0,0,0c0,0,0,0,0,0,0,0,0,0,0,0h0s0,0,0,0c.03.03.06.06.09.09l.54-.52c-.13-.13-.26-.27-.38-.41h0ZM414.21,117.78l-.51.55h0s0,0,0,0c0,0,0,0,0,0,0,0,0,0,0,0,0,0,0,0,0,0,0,0,0,0,0,0,0,0,0,0,0,0,0,0,0,0,0,0,0,0,0,0,0,0,0,0,0,0,0,0,0,0,0,0,0,0,0,0,0,0,0,0,.09.08.18.16.27.24,0,0,0,0,0,0,0,0,0,0,0,0,0,0,0,0,0,0,0,0,0,0,0,0,0,0,0,0,0,0,0,0,0,0,0,0,0,0,0,0,0,0,0,0,0,0,0,0,0,0,0,0,0,0,0,0,0,0,0,0h0s0,0,0,0c0,0,0,0,0,0,0,0,0,0,0,0,.03.03.07.06.1.09l.48-.57c-.14-.12-.28-.25-.42-.37h0ZM415.07,118.51l-.46.59c.16.12.32.24.48.35l.43-.62c-.15-.11-.31-.22-.46-.33h0ZM415.99,119.15l-.4.64s.01,0,.02.01c0,0,0,0,0,0,0,0,0,0,0,0,0,0,0,0,0,0,0,0,0,0,0,0,0,0,0,0,0,0,0,0,0,0,0,0,0,0,0,0,0,0,0,0,0,0,0,0,0,0,0,0,0,0,0,0,0,0,0,0,0,0,0,0,0,0,0,0,0,0,0,0h0s0,0,0,0c0,0,0,0,0,0,0,0,0,0,0,0,0,0,0,0,0,0,0,0,0,0,0,0,0,0,0,0,0,0,0,0,0,0,0,0,0,0,0,0,0,0,0,0,0,0,0,0,0,0,0,0,0,0,0,0,0,0,0,0,0,0,0,0,0,0,0,0,0,0,0,0,0,0,0,0,0,0,0,0,0,0,0,0,0,0,0,0,0,0,0,0,0,0,0,0,0,0,0,0,0,0,0,0,0,0,0,0,0,0,0,0,0,0,0,0,0,0,0,0,0,0,0,0,0,0,0,0,0,0,0,0h0s0,0,0,0c0,0,0,0,0,0,0,0,0,0,0,0,0,0,0,0,0,0,0,0,0,0,0,0,0,0,0,0,0,0,0,0,0,0,0,0,0,0,0,0,0,0,0,0,0,0,0,0,0,0,0,0,0,0,0,0,0,0,0,0,0,0,0,0,0,0,0,0,0,0,0,0,0,0,0,0,0,0,0,0,0,0,0,0,0,0,0,0,0,0,0,0,0,0,0,0,0,0,0,0,0,0,0,0,0,0,0,0,0,0,0,0,0,0,0,0,0,0,0,0,0,0,0,0,0,0,0,0,0,0,0,0,0,0,0,0,0,0,0,0,0,0,0,0,0,0,0,0,0,0,0,0,0,0,0,0,0,0,0,0,0,0,0,0,0,0,0,0,0,0,0,0,0,0,0,0,0,0,0,0,0,0,0,0,0,0,.07.04.15.09.22.13l.37-.65c-.16-.09-.33-.19-.48-.29h0ZM416.98,119.71l-.34.67c.11.06.22.11.34.16,0,0,0,0,0,0,0,0,0,0,0,0,0,0,0,0,0,0,0,0,0,0,0,0,0,0,0,0,0,0,0,0,0,0,0,0,0,0,0,0,0,0,0,0,0,0,0,0,0,0,0,0,0,0,0,0,0,0,0,0,0,0,0,0,0,0h0s0,0,0,0c0,0,0,0,0,0,0,0,0,0,0,0,0,0,0,0,0,0,0,0,0,0,0,0,0,0,0,0,0,0,0,0,0,0,0,0h0s0,0,0,0c0,0,0,0,0,0,0,0,0,0,0,0,0,0,0,0,0,0,0,0,0,0,0,0,0,0,0,0,0,0,0,0,0,0,0,0,0,0,0,0,0,0,0,0,0,0,0,0,0,0,0,0,0,0,0,0,0,0,0,0,0,0,0,0,0,0,0,0,0,0,0,0,0,0,0,0,0,0,0,0,0,0,0,0,0,0,0,0,0,0,0,0,0,0,0,0,0,0,0,0,0,0,0,0,0,0,0,0,0,0,0,0,0,0h0s0,0,0,0h0s.02,0,.03.01l.3-.69c-.17-.08-.34-.16-.51-.24h0ZM418.01,120.16l-.27.7c.19.07.37.14.56.2l.24-.71c-.18-.06-.36-.12-.53-.19h0ZM419.08,120.52l-.2.72c.18.05.36.1.54.14,0,0,0,0,0,0,0,0,0,0,0,0,0,0,0,0,0,0,0,0,0,0,0,0,0,0,0,0,0,0,0,0,0,0,0,0,0,0,0,0,0,0,0,0,0,0,0,0,0,0,0,0,0,0l.17-.73c-.18-.04-.37-.09-.55-.14h0ZM420.18,120.77l-.13.74c.2.03.39.06.59.09l.1-.74c-.19-.02-.37-.05-.56-.08h0ZM421.3,120.91l-.06.75s.08,0,.13,0c0,0,0,0,0,0,0,0,0,0,0,0,0,0,0,0,0,0,0,0,0,0,0,0,0,0,0,0,0,0,0,0,0,0,0,0,0,0,0,0,0,0,0,0,0,0,0,0,0,0,0,0,0,0h0s0,0,0,0c0,0,0,0,0,0,0,0,0,0,0,0,0,0,0,0,0,0,0,0,0,0,0,0,0,0,0,0,0,0,0,0,.01,0,.02,0,0,0,0,0,0,0,0,0,0,0,0,0,0,0,0,0,0,0,0,0,0,0,0,0,0,0,0,0,0,0,0,0,0,0,0,0,0,0,0,0,0,0h0s0,0,0,0h0s0,0,0,0c0,0,0,0,0,0,0,0,0,0,0,0,0,0,0,0,0,0,0,0,0,0,0,0,0,0,0,0,0,0,0,0,0,0,0,0,0,0,0,0,0,0,0,0,0,0,0,0s0,0,0,0c0,0,0,0,0,0h0s0,0,0,0c0,0,0,0,0,0,0,0,0,0,0,0,0,0,0,0,0,0,.01,0,.02,0,.03,0,0,0,0,0,0,0,0,0,0,0,0,0,0,0,0,0,0,0,0,0,0,0,0,0,0,0,0,0,0,0,0,0,0,0,0,0,0,0,0,0,0,0,0,0,0,0,0,0,0,0,0,0,0,0,.06,0,.13,0,.19,0l.02-.75c-.19,0-.38-.02-.56-.03h0ZM422.99,120.92c-.19.01-.37.02-.56.02v.75c.11,0,.2,0,.29,0,0,0,0,0,0,0,0,0,0,0,0,0h0s0,0,0,0c0,0,0,0,0,0,0,0,0,0,0,0h0s0,0,0,0c0,0,0,0,0,0,.02,0,.04,0,.07,0,0,0,0,0,0,0,0,0,0,0,0,0,0,0,0,0,0,0,0,0,0,0,0,0,0,0,0,0,0,0,0,0,0,0,0,0,0,0,0,0,0,0,0,0,0,0,0,0,0,0,0,0,0,0,0,0,0,0,0,0,0,0,0,0,0,0,0,0,0,0,0,0,0,0,0,0,0,0,0,0,0,0,0,0,0,0,0,0,0,0,0,0,0,0,0,0,0,0,0,0,0,0,0,0,0,0,0,0,0,0,0,0,0,0,0,0,0,0,0,0,0,0,0,0,0,0,0,0,0,0,0,0,0,0,0,0,0,0,0,0,0,0,0,0,0,0,0,0,0,0,0,0,0,0,0,0,0,0,0,0,0,0,0,0,0,0,0,0,0,0,0,0,0,0,0,0,0,0,0,0,0,0,0,0,0,0h0s0,0,0,0h0s0,0,0,0c0,0,0,0,0,0,0,0,0,0,0,0,0,0,0,0,0,0,0,0,0,0,0,0h0s0,0,0,0c0,0,0,0,0,0,0,0,0,0,.01,0l-.05-.75h0ZM424.11,120.8c-.18.03-.37.05-.56.07l.08.75c.08,0,.16-.02.24-.03,0,0,0,0,0,0,0,0,.01,0,.02,0,.11-.01.22-.03.33-.05l-.12-.74h0ZM425.21,120.57c-.18.05-.36.09-.55.13l.15.73s.04,0,.06-.01c0,0,0,0,0,0,0,0,0,0,0,0,0,0,0,0,0,0,0,0,0,0,0,0,0,0,0,0,0,0,0,0,0,0,0,0,0,0,0,0,0,0,0,0,0,0,0,0,0,0,0,0,0,0,0,0,0,0,0,0,.16-.04.32-.07.48-.11l-.19-.73h0ZM426.29,120.24c-.18.06-.35.12-.53.18l.22.72c.14-.04.29-.09.43-.14.05-.02.09-.03.14-.05l-.26-.7h0ZM427.33,119.8c-.17.08-.34.16-.51.23l.29.69s.03-.01.04-.02h0s0,0,0,0c0,0,0,0,0,0,0,0,0,0,0,0,0,0,0,0,0,0,0,0,0,0,0,0,0,0,0,0,0,0,0,0,0,0,0,0,.16-.07.32-.14.47-.21l-.32-.68h0ZM428.32,119.26c-.16.1-.32.19-.49.28l.36.66c.06-.03.12-.07.19-.1,0,0,0,0,0,0,0,0,0,0,0,0,0,0,0,0,0,0,0,0,0,0,0,0,0,0,0,0,0,0,0,0,0,0,0,0,0,0,0,0,0,0,0,0,0,0,0,0,0,0,0,0,0,0,0,0,0,0,0,0,0,0,0,0,0,0,0,0,0,0,0,0,0,0,0,0,0,0,0,0,0,0,0,0,0,0,0,0,0,0,0,0,0,0,0,0,.09-.05.18-.11.27-.16l-.39-.64h0ZM429.26,118.64c-.15.11-.3.22-.46.32l.42.62c.12-.08.25-.17.37-.26,0,0,0,0,0,0,0,0,0,0,0,0,0,0,0,0,0,0,0,0,0,0,0,0,0,0,0,0,0,0,0,0,0,0,0,0,0,0,0,0,0,0,0,0,0,0,0,0,0,0,0,0,0,0,0,0,0,0,0,0,0,0,0,0,0,0,0,0,0,0,0,0,0,0,0,0,0,0,0,0,0,0,0,0,.02-.02.05-.04.07-.05l-.45-.6h0ZM430.13,117.92c-.14.13-.28.25-.43.37l.47.58s.01-.01.02-.02c0,0,0,0,0,0,0,0,0,0,0,0,0,0,0,0,0,0,0,0,0,0,0,0,0,0,0,0,0,0,0,0,0,0,0,0,0,0,0,0,0,0,0,0,0,0,0,0,0,0,0,0,0,0,0,0,0,0,0,0,0,0,0,0,0,0,0,0,0,0,0,0,0,0,0,0,0,0,0,0,0,0,0,0,0,0,0,0,0,0,0,0,0,0,0,0,0,0,0,0,0,0,0,0,0,0,0,0,0,0,0,0,0,0,0,0,0,0,0,0,0,0,0,0,0,0,0,0,0,0,0,0,0,0,0,0,0,0,0,0,0,0,0,0,0,0,0,0,0,0,0,0,0,0,0,0,0,0,0,0,0,0,0,0,0,0,0,0,0,0,0,0,0,0,0,0,0,0,0,0,0,0,0,0,0,0,0,0,0,0,0,0,0,0,0,0,0,0,0,0,0,0,0,0,0,0,0,0,0,0,0,0,0,0,0,0,0,0,0,0,0,0,0,0,0,0,0,0,0,0,0,0,0,0,0,0,0,0,0,0,0,0,0,0,0,0,0,0,0,0,0,0,0,0,0,0,0,0,0,0,0,0,0,0,0,0,0,0,0,0,0,0,0,0,0,0,0,0,0,0,0,0,0,0,0,0,0,0,0,0,0,0,0,0,0,0,0,0,0,0,0,0,0,0,0,0,0,0,0,0,0,0,0,0,0,0,0,0,0,0,0,0,0,0,0,0,0,0,0,0,0,0,0,0,0,0,0,0,0,0,0,0,0,0,0,0,0,0,0,0,0,0,0,0,0,0,0,0,0,0,0,0,0,0,0,0,0,0,0,0,0,0,0,0,0,0,0,0,0,0,0,0,0,0,0,0,0,0,0,0,0,0,0,0,0,0,0,0,0,0,0,0,0,0,0,0,0,0,0,0,0,0,0,0,0,0,0,0,0,0,0,0,0,0,0,0,.06-.05.12-.11.18-.16l-.5-.56h0ZM430.93,117.13c-.13.14-.26.27-.39.41l.53.53c.05-.05.11-.11.16-.16,0,0,0,0,0,0,0,0,0,0,0,0,0,0,0,0,0,0,0,0,0,0,0,0,0,0,0,0,0,0,0,0,0,0,0,0,.08-.08.16-.17.24-.25l-.55-.51h0ZM431.66,116.26c-.11.15-.23.3-.35.44l.58.48s.07-.09.11-.13c0,0,0,0,0,0,0,0,0,0,0,0h0s0,0,0,0c0,0,0,0,0,0,0,0,0,0,0,0,0,0,0,0,0,0,0,0,0,0,0,0,0,0,0,0,0,0,0,0,0,0,0,0,0,0,0,0,0,0,0,0,0,0,0,0,0,0,0,0,0,0,0,0,0,0,0,0,0,0,0,0,0,0,0,0,0,0,0,0,0,0,0,0,0,0,0,0,0,0,0,0,0,0,0,0,0,0,0,0,0,0,0,0,0,0,0,0,0,0,0,0,0,0,0,0h0s0,0,0,0c0,0,0,0,0,0,0,0,0,0,0,0,0,0,0,0,0,0,0,0,0,0,0,0,0,0,0,0,0,0,0,0,0,0,0,0,0,0,0,0,0,0,0,0,0,0,0,0,0,0,0,0,0,0,0,0,0,0,0,0,0,0,0,0,0,0,0,0,0,0,0,0,0,0,0,0,0,0,0,0,0,0,0,0,0,0,0,0,0,0,0,0,0,0,0,0,0,0,0,0,0,0,0,0,0,0,0,0,0,0,0,0,0,0,0,0,0,0,0,0,0,0,0,0,0,0,0,0,0,0,0,0,0,0,0,0,0,0,0,0,0,0,0,0,0,0,0,0,0,0h0s0,0,0,0h0s0,0,0,0h0s0,0,0,0h0s0,0,0,0h0s0,0,0,0h0s.06-.08.09-.12l-.6-.45h0ZM432.29,115.33c-.1.16-.2.32-.31.47l.62.42c.11-.16.22-.33.33-.5l-.64-.39h0ZM432.84,114.34c-.08.17-.17.34-.26.5l.66.36s.03-.05.04-.08c0,0,0,0,0,0,0,0,0,0,0,0,0,0,0,0,0,0,0,0,0,0,0,0,0,0,0,0,0,0,0,0,0,0,0,0,0,0,0,0,0,0,0,0,0,0,0,0,0,0,0,0,0,0,0,0,0,0,0,0,0,0,0,0,0,0,0,0,0,0,0,0,0,0,0,0,0,0,0,0,0,0,0,0,0,0,0,0,0,0,0,0,0,0,0,0,0,0,0,0,0,0h0c.07-.13.13-.26.2-.38l-.67-.33h0ZM433.29,113.31c-.07.18-.14.35-.21.52l.69.3c.08-.18.15-.37.22-.56l-.7-.26h0ZM433.63,112.24c-.05.18-.1.36-.16.54l.71.23c.02-.08.05-.15.07-.23,0,0,0,0,0,0,0,0,0,0,0,0,0,0,0,0,0,0,0,0,0,0,0,0,0,0,0,0,0,0,0,0,0,0,0,0,0,0,0,0,0,0,0,0,0,0,0,0,0,0,0,0,0,0,0,0,0,0,0,0,0,0,0,0,0,0,0,0,0,0,0,0,0,0,0,0,0,0,0,0,0,0,0,0,0,0,0,0,0,0,0,0,0,0,0,0,0,0,0,0,0,0,0,0,0,0,0,0,0,0,0,0,0,0,0,0,0,0,0,0,0,0,0,0,0,0,0,0,0,0,0,0,0,0,0,0,0,0,0,0,0,0,0,0,0,0,0,0,0,0,0,0,0,0,0,0,0,0,0,0,0,0,0,0,0,0,0,0,0,0,0,0,0,0,0,0,0,0,0,0,0,0,0,0,0,0,.02-.07.04-.14.06-.21l-.72-.2h0ZM433.87,111.14c-.03.19-.07.37-.11.55l.73.16c.04-.19.08-.39.11-.59l-.74-.13h0ZM434.01,110.02c-.01.19-.03.38-.05.56l.74.09s0-.08.01-.12h0s0,0,0,0c0,0,0,0,0,0,0,0,0,0,0,0,0,0,0,0,0,0,0,0,0,0,0,0,0,0,0,0,0,0,0,0,0,0,0,0,0,0,0,0,0,0,0,0,0,0,0,0h0s0,0,0,0c0,0,0,0,0,0,0,0,0,0,0,0,0,0,0,0,0,0,0,0,0,0,0,0,0,0,0,0,0,0,0,0,0,0,0,0h0s0,0,0-.01c0,0,0,0,0,0,0-.02,0-.04,0-.06h0s0,0,0,0c0,0,0,0,0,0,0,0,0-.01,0-.02h0c0-.1.02-.19.02-.29l-.75-.05h0ZM434.79,108.87l-.75.02c0,.09,0,.18,0,.27,0,.1,0,.2,0,.3l.75.02s0,0,0,0c0,0,0,0,0,0,0,0,0,0,0,0,0,0,0,0,0,0,0,0,0,0,0,0,0,0,0,0,0,0,0,0,0,0,0,0,0,0,0,0,0,0,0,0,0,0,0,0,0,0,0,0,0,0,0,0,0,0,0,0,0,0,0,0,0,0,0,0,0,0,0,0,0,0,0,0,0,0,0,0,0,0,0,0,0,0,0,0,0,0,0,0,0,0,0,0,0,0,0,0,0,0,0,0,0,0,0,0,0,0,0,0,0,0,0,0,0,0,0,0,0,0,0,0,0,0,0,0,0,0,0,0,0,0,0,0,0,0,0,0,0,0,0,0,0,0,0,0,0,0,0,0,0,0,0,0,0,0,0,0,0,0,0,0,0,0,0,0,0,0,0,0,0,0,0,0,0,0,0,0,0,0,0,0,0,0,0,0,0,0,0,0,0,0,0,0,0,0,0,0,0,0,0,0,0,0,0,0,0,0,0,0,0,0,0,0,0,0,0,0,0,0,0,0,0,0,0,0h0s0,0,0-.01c0,0,0,0,0,0,0,0,0,0,0,0,0,0,0,0,0,0,0,0,0,0,0,0,0,0,0,0,0,0h0s0,0,0-.01c0,0,0,0,0,0,0,0,0,0,0,0h0s0,0,0-.01c0,0,0,0,0,0,0,0,0,0,0,0h0s0,0,0-.01h0s0,0,0,0h0s0-.02,0-.02h0v-.02h0s0,0,0,0h0s0-.02,0-.02h0s0,0,0-.01h0c0-.06,0-.12,0-.18,0,0,0,0,0,0,0,0,0,0,0,0,0,0,0,0,0,0,0,0,0,0,0,0,0,0,0,0,0,0,0,0,0,0,0,0,0,0,0,0,0,0,0,0,0,0,0,0,0,0,0-.01,0-.02h0ZM434.7,107.67l-.74.09c.02.19.04.37.05.56l.75-.05s0,0,0,0c0,0,0,0,0,0,0,0,0,0,0,0,0,0,0,0,0,0,0,0,0,0,0,0h0s0,0,0-.01c0,0,0,0,0,0,0,0,0,0,0,0,0,0,0,0,0,0,0,0,0,0,0,0,0,0,0,0,0,0,0,0,0,0,0,0,0,0,0,0,0,0,0-.11-.02-.22-.03-.34,0,0,0,0,0,0,0-.01,0-.03,0-.04,0,0,0,0,0,0,0,0,0,0,0,0,0,0,0,0,0,0,0,0,0,0,0,0,0,0,0,0,0,0,0,0,0,0,0,0,0-.04,0-.09-.01-.13h0ZM434.51,106.49l-.73.16c.04.18.07.37.11.55l.74-.12s0-.06-.01-.08c0,0,0,0,0,0,0,0,0,0,0,0,0,0,0,0,0,0,0,0,0,0,0,0,0,0,0,0,0,0,0,0,0,0,0,0,0,0,0,0,0,0,0,0,0,0,0,0,0,0,0,0,0,0,0,0,0,0,0,0,0,0,0,0,0,0,0,0,0,0,0,0,0,0,0,0,0,0,0,0,0,0,0,0-.03-.15-.06-.3-.09-.44h0ZM434.2,105.33l-.71.23c.06.18.11.36.16.54l.72-.19c-.05-.19-.11-.39-.17-.58h0ZM433.78,104.21l-.69.3c.07.17.14.35.21.52l.7-.26c-.03-.09-.07-.18-.1-.26,0,0,0,0,0,0,0,0,0,0,0,0,0,0,0,0,0,0,0,0,0,0,0,0,0,0,0,0,0,0,0,0,0,0,0,0,0,0,0,0,0,0,0,0,0,0,0,0,0,0,0,0,0,0,0,0,0,0,0,0,0,0,0,0,0,0,0,0,0,0,0,0,0,0,0,0,0,0,0,0,0,0,0,0,0,0,0,0,0,0h0c-.03-.08-.06-.15-.09-.22h0ZM433.25,103.13l-.66.36c.09.16.18.33.26.5l.67-.33c-.03-.05-.05-.11-.08-.16,0,0,0,0,0,0,0,0,0,0,0,0,0,0,0,0,0,0,0,0,0,0,0,0,0,0,0,0,0,0,0,0,0,0,0,0,0,0,0,0,0,0,0,0,0,0,0,0,0,0,0,0,0,0,0,0,0,0,0,0,0,0,0,0,0,0,0,0,0,0,0,0,0,0,0,0,0,0h0s0,0,0,0h0s0,0,0,0h0s0,0,0,0h0s0,0,0,0h0s0,0,0,0h0s0,0,0,0h0s0,0,0,0h0s0,0,0,0c0,0,0,0,0,0,0,0,0,0,0,0,0,0,0,0,0,0,0,0,0,0,0,0,0,0,0,0,0,0,0,0,0,0,0,0,0,0,0,0,0,0,0,0,0,0,0,0h0s0,0,0,0h0s0,0,0,0c0,0,0,0,0,0,0,0,0,0,0,0,0,0,0,0,0,0,0,0,0,0,0,0,0,0,0,0,0,0,0,0,0,0,0,0,0,0,0,0,0,0,0,0,0,0,0,0,0,0,0,0,0,0,0,0,0,0,0,0,0,0,0,0,0,0,0,0,0,0,0,0,0,0,0,0,0,0,0,0,0,0,0,0,0,0,0,0,0,0,0,0,0,0,0,0,0,0,0,0,0,0,0,0,0,0,0,0,0,0,0,0,0,0,0,0,0,0,0,0,0,0,0,0,0,0,0,0,0,0,0,0,0,0,0,0,0,0,0,0,0,0,0,0,0,0,0,0,0,0,0,0,0,0,0,0-.02-.03-.03-.06-.05-.09h0ZM432.63,102.11l-.62.42c.11.16.21.31.31.47l.64-.39s-.06-.1-.09-.15c0,0,0,0,0,0,0,0,0,0,0,0,0,0,0,0,0,0,0,0,0,0,0,0,0,0,0,0,0,0,0,0,0,0,0,0,0,0,0,0,0,0,0,0,0,0,0,0,0,0,0,0,0,0,0,0,0,0,0,0,0,0,0,0,0,0,0,0,0,0,0,0,0,0,0,0,0,0,0,0,0,0,0,0,0,0,0,0,0,0,0,0,0,0,0,0,0,0,0,0,0,0,0,0,0,0,0,0,0,0,0,0,0,0,0,0,0,0,0,0,0,0,0,0,0,0,0,0,0,0,0,0,0,0,0,0,0,0,0,0,0,0,0,0,0,0,0,0,0,0,0,0,0,0,0,0,0,0,0,0,0,0,0,0,0,0,0,0,0,0,0,0,0,0,0,0,0,0,0,0,0,0,0,0,0,0,0,0,0,0,0,0,0,0,0,0,0,0,0,0,0,0,0,0,0,0,0,0,0,0,0,0,0,0,0,0,0,0,0,0,0,0,0,0,0,0,0,0,0,0,0,0,0,0,0,0,0,0,0,0,0,0,0,0,0,0,0,0,0,0,0,0,0,0,0,0,0,0,0,0,0,0,0,0,0,0,0,0,0,0,0,0,0,0,0,0,0,0,0,0,0,0,0,0,0,0,0,0,0,0,0,0,0,0,0,0,0,0,0,0,0,0,0,0,0,0,0,0,0,0,0,0,0,0,0,0,0,0,0,0,0,0,0,0,0,0,0,0,0,0,0,0,0,0,0,0,0,0,0,0,0,0,0,0,0,0,0,0,0,0,0,0,0,0,0,0,0,0,0,0,0,0,0,0,0,0,0,0,0,0,0,0,0,0,0,0,0,0,0,0,0,0,0,0,0,0,0,0,0,0,0,0,0,0,0,0,0,0,0,0,0,0,0,0,0,0,0,0,0,0,0,0,0,0,0,0,0,0,0,0,0,0,0,0,0,0,0,0,0,0,0,0,0,0,0,0,0,0,0,0,0,0,0,0,0,0,0,0,0,0-.01-.02-.03-.04-.04-.06h0ZM431.9,101.15l-.58.48c.12.14.24.29.35.44l.6-.45c-.12-.16-.24-.32-.37-.47h0ZM431.1,100.26l-.53.53c.13.13.26.27.39.41l.55-.51c-.09-.1-.19-.21-.29-.31,0,0,0,0,0,0,0,0,0,0,0,0,0,0,0,0,0,0,0,0,0,0,0,0,0,0,0,0,0,0,0,0,0,0,0,0,0,0,0,0,0,0,0,0,0,0,0,0,0,0,0,0,0,0,0,0,0,0,0,0,0,0,0,0,0,0,0,0,0,0,0,0,0,0,0,0,0,0,0,0,0,0,0,0-.03-.03-.06-.06-.09-.09h0ZM430.21,99.46l-.48.58c.15.12.29.24.43.37l.5-.56c-.15-.13-.3-.26-.45-.39h0ZM429.24,98.74l-.42.62c.16.11.31.21.46.33l.45-.6c-.16-.12-.32-.24-.49-.35h0ZM428.22,98.12l-.36.66c.17.09.33.18.49.28l.39-.64s-.06-.03-.08-.05c0,0,0,0,0,0,0,0,0,0,0,0,0,0,0,0,0,0,0,0,0,0,0,0,0,0,0,0,0,0,0,0,0,0,0,0,0,0,0,0,0,0,0,0,0,0,0,0,0,0,0,0,0,0,0,0,0,0,0,0,0,0,0,0,0,0,0,0,0,0,0,0,0,0,0,0,0,0,0,0,0,0,0,0,0,0,0,0,0,0,0,0,0,0,0,0,0,0,0,0,0,0,0,0,0,0,0,0,0,0,0,0,0,0h0c-.12-.07-.24-.14-.36-.2h0ZM427.14,97.6l-.29.69c.17.07.34.15.51.23l.33-.68c-.06-.03-.13-.06-.19-.09,0,0,0,0,0,0,0,0,0,0,0,0,0,0,0,0,0,0,0,0,0,0,0,0,0,0,0,0,0,0,0,0,0,0,0,0,0,0,0,0,0,0,0,0,0,0,0,0,0,0,0,0,0,0,0,0,0,0,0,0,0,0,0,0,0,0,0,0,0,0,0,0,0,0,0,0,0,0,0,0,0,0,0,0,0,0,0,0,0,0,0,0,0,0,0,0,0,0,0,0,0,0,0,0,0,0,0,0,0,0,0,0,0,0,0,0,0,0,0,0,0,0,0,0,0,0,0,0,0,0,0,0,0,0,0,0,0,0,0,0,0,0,0,0,0,0,0,0,0,0h0c-.08-.04-.17-.07-.25-.11h0ZM426.01,97.18l-.22.72c.18.06.36.12.53.18l.26-.7s-.06-.02-.09-.03c0,0,0,0,0,0,0,0,0,0,0,0,0,0,0,0,0,0,0,0,0,0,0,0,0,0,0,0,0,0,0,0,0,0,0,0,0,0,0,0,0,0,0,0,0,0,0,0,0,0,0,0,0,0,0,0,0,0,0,0,0,0,0,0,0,0,0,0,0,0,0,0,0,0,0,0,0,0h0s0,0,0,0c0,0,0,0,0,0-.11-.04-.22-.08-.33-.11,0,0,0,0,0,0,0,0,0,0,0,0,0,0,0,0,0,0,0,0,0,0,0,0,0,0,0,0,0,0,0,0,0,0,0,0,0,0,0,0,0,0,0,0,0,0,0,0,0,0,0,0,0,0h0s0,0,0,0c0,0,0,0,0,0,0,0,0,0,0,0s0,0,0,0,0,0,0,0c0,0,0,0,0,0,0,0,0,0,0,0,0,0,0,0,0,0,0,0,0,0,0,0h0ZM424.85,96.88l-.15.73c.18.04.37.08.55.13l.19-.73s-.07-.02-.11-.03h0s0,0,0,0c0,0,0,0,0,0,0,0,0,0,0,0,0,0,0,0,0,0,0,0,0,0,0,0h0s0,0,0,0c0,0,0,0,0,0,0,0,0,0,0,0,0,0,0,0,0,0,0,0,0,0,0,0,0,0,0,0,0,0,0,0,0,0,0,0,0,0,0,0,0,0,0,0,0,0,0,0,0,0,0,0,0,0,0,0,0,0,0,0,0,0,0,0,0,0,0,0,0,0,0,0,0,0,0,0,0,0,0,0,0,0,0,0,0,0,0,0,0,0,0,0,0,0,0,0,0,0,0,0,0,0h0s0,0,0,0h0s0,0,0,0h0s-.08-.02-.11-.03c0,0,0,0,0,0,0,0,0,0,0,0,0,0,0,0,0,0,0,0,0,0,0,0,0,0,0,0,0,0,0,0,0,0,0,0,0,0,0,0,0,0,0,0,0,0,0,0,0,0,0,0,0,0,0,0,0,0,0,0,0,0,0,0,0,0,0,0,0,0,0,0,0,0,0,0,0,0,0,0,0,0,0,0,0,0,0,0,0,0,0,0,0,0,0,0,0,0,0,0,0,0,0,0,0,0,0,0,0,0,0,0,0,0h0s0,0,0,0h0s-.09-.02-.13-.03h0ZM423.67,96.69l-.08.75c.19.02.37.05.56.08l.12-.74h0c-.2-.03-.39-.06-.59-.08h0ZM422.47,96.61v.75c.18,0,.36.01.55.02l.05-.75s0,0,0,0c0,0,0,0,0,0,0,0,0,0,0,0-.16-.01-.32-.02-.48-.02,0,0,0,0,0,0,0,0,0,0,0,0,0,0,0,0,0,0,0,0,0,0,0,0,0,0,0,0,0,0,0,0,0,0,0,0,0,0,0,0,0,0,0,0,0,0,0,0,0,0,0,0,0,0,0,0,0,0,0,0,0,0,0,0,0,0,0,0,0,0,0,0-.02,0-.04,0-.06,0h0Z"/>
      <path class="cls-5" d="M423.44,111.81c0-.26-.04-.48-.12-.65-.08-.17-.21-.32-.39-.45-.18-.13-.42-.26-.72-.38-.63-.26-1.19-.52-1.67-.79-.48-.27-.86-.61-1.13-1.01-.27-.4-.41-.93-.41-1.57,0-.59.15-1.1.44-1.54s.7-.78,1.21-1.01,1.11-.36,1.78-.36c.51,0,.98.08,1.4.23.42.15.79.37,1.1.66.31.29.54.64.71,1.05.17.42.25.89.25,1.41h-2.4c0-.27-.03-.5-.08-.7-.05-.2-.13-.35-.23-.48-.1-.12-.22-.21-.35-.27-.13-.06-.28-.09-.43-.09-.24,0-.43.05-.58.15-.15.1-.25.24-.32.4s-.1.35-.1.56.04.4.11.56.2.31.38.44c.18.13.43.27.74.42.62.26,1.17.53,1.65.81.48.28.87.62,1.14,1.03.28.41.42.93.42,1.57s-.15,1.14-.43,1.58c-.29.43-.69.77-1.21.99-.52.23-1.12.34-1.79.34-.46,0-.91-.06-1.36-.18-.45-.12-.86-.31-1.22-.58-.37-.27-.66-.62-.88-1.07-.22-.45-.33-.99-.33-1.64h2.4c0,.32.04.58.11.8.08.21.18.38.31.51.13.13.28.22.45.27.17.05.34.08.52.08.24,0,.44-.05.59-.15.15-.1.26-.23.34-.39s.11-.35.11-.54ZM422.96,114.19v1.92h-1.13v-1.92h1.13ZM423.11,102.56v2.07h-1.13v-2.07h1.13Z"/>
    </g>
    <text class="cls-2" transform="translate(440 122.26)"><tspan x="0" y="0">P</tspan><tspan class="cls-11" x="5.16" y="0">N</tspan><tspan class="cls-14" x="10.69" y="0">T</tspan><tspan x="15.58" y="0">S</tspan></text>
    <path class="cls-4" d="M161.54,118.19c42.2-7.88,85.14-12.68,128.11-12.78,37.9.3,75.83,4.72,112.85,12.78-39.79-6.5-80.1-10.25-120.4-9.83-40.22.98-80.6,4.93-120.55,9.83h0Z"/>
  </g>
  <g class="cls-16">
    <g class="cls-6">
      <path class="cls-7" d="M80,131.17l40.7-20.16c3.34-1.65,5.99-4.49,7.26-7.99.7-1.92,1.08-3.99,1.08-6.15v-62c0-9.97-8.08-18.05-18.05-18.05h-61.99c-9.97,0-18.05,8.08-18.05,18.05v62c0,2.02.33,3.96.95,5.77,1.17,3.45,3.73,6.26,6.98,7.89l41.11,20.63Z"/>
      <path class="cls-5" d="M112.12,55.34v4.89c-1.26,16.19-14.35,28.91-30.57,29.75h-3.06c-16.24-.8-29.69-13.83-30.53-30.11-1.21-16.49,10.6-31.18,27.01-33.86,3.38-.32,6.7-.33,10.09,0,14.8,2.4,25.87,14.61,27.05,29.32M83.88,36.13c-.72-3.09-1.28-5.69-2.6-8.24-.42-.45-.78-.76-1.26-1.01-.49.25-.85.56-1.26,1.01-1.34,2.53-1.89,5.14-2.6,8.22l7.72.02ZM74.9,36.09c.55-3.25,1.35-5.99,2.69-8.81-4.34,1.35-7.14,4.83-9.27,8.8,2.24.07,4.39.07,6.58.02M91.71,36.05c-2.18-3.99-4.9-7.44-9.36-8.8,1.48,2.62,2.18,5.61,2.81,8.85,2.18.04,4.33.05,6.55-.06M66.92,36.06c1.57-3.21,3.48-5.73,6.08-7.81-4.33,1.58-7.77,4.51-10.51,7.88l4.44-.07ZM97.51,36.12c-2.95-3.68-6.39-6.35-10.45-7.85,2.76,2.18,4.56,4.85,6.12,7.86h4.33ZM61.02,36.01c1.88-2.73,4.05-4.61,6.68-6.53-3.49,1.6-6.74,3.71-9.52,6.56.97.11,1.91.12,2.84-.03M101.84,36.05c-2.74-2.81-5.81-4.84-9.37-6.5,2.55,1.9,4.78,3.92,6.65,6.55.97.03,1.83.02,2.72-.05M66.12,37.51l-3.72-.08c1.07.5,2.08,1.07,3.14,1.84l.58-1.76ZM73.48,46.85l1.11-9.39h-6.98s-1.05,2.45-1.05,2.45c2.61,2.01,4.64,4.41,6.92,6.94M85.16,46.65c-.29-3.43-.62-6.21-1.1-9.2h-8.1c-.49,3.02-.83,5.96-1.1,9.22l10.3-.02ZM95.39,46.67c-.62-3.23-1.61-6.27-2.99-9.23l-6.98.03,1.06,9.21h8.91ZM102.94,46.64c-1.1-3.6-2.54-6.41-4.45-9.19l-4.61.03c1.27,3.08,2.19,6.03,2.91,9.21l6.15-.05ZM108.79,46.66c-1.46-3.66-3.28-6.53-5.6-9.22l-3.01.08c1.76,2.97,3.25,5.75,4.11,9.17l4.5-.02ZM54.07,57.16c.15-3.12.38-6.19,1.35-9.25l-4.61.05c-1.07,2.92-1.53,6.01-1.66,9.22h4.92ZM62.16,57.18c.08-2.99.33-5.72.74-8.66-2.08-.38-4.11-.58-6.21-.58-.82,3.09-1.2,5.97-1.3,9.21l6.77.03ZM85.56,57.16l-.24-9.25-10.91.09,5.84,9.15h5.32ZM96.53,57.17c-.02-3.18-.39-6.33-.82-9.24h-9.17s.35,9.25.35,9.25h9.64ZM104.64,57.15c-.1-3.23-.49-6.13-1.3-9.2h-6.43c.72,3.19.82,6.11.95,9.23l6.77-.03ZM110.83,57.18c0-3.16-.57-6.27-1.6-9.22l-4.56-.05c.78,2.84,1.18,5.93,1.27,9.24l4.89.03ZM73.18,57.16l.05-4.22c-2.83-1.87-5.68-3.31-9.03-4.1-.43,2.81-.68,5.53-.69,8.34h9.67ZM78.45,57.13c-1.25-1.08-2.39-2.05-3.86-3.17l-.15,3.22,4.01-.04ZM55.42,67.68c-.99-3.09-1.19-6.11-1.36-9.22h-4.88c-.01,3.15.65,6.04,1.51,9.21h4.72ZM63,67.64c-.52-3.4-.75-6.11-.85-9.2l-6.75.03c.08,3.23.47,6.18,1.31,9.21l6.3-.04ZM73.48,67.67l-.32-9.21h-9.66c.03,3.17.31,6.11.85,9.21h9.13ZM85.64,67.62l-5.9-9.18-5.3.03.28,9.22,10.92-.07ZM85.51,58.44l-3.92.03,3.94,3.34-.02-3.37ZM95.83,66.87c.44-2.91.66-5.55.72-8.42h-9.69s-.05,4.22-.05,4.22c2.82,1.96,5.77,3.25,9.02,4.21M103.37,67.64c.8-3.23,1.18-6.01,1.26-9.18l-6.75-.03c-.12,3.02-.37,5.77-.74,8.69,2.15.36,4.16.59,6.23.52M109.3,67.64c.97-3.19,1.52-6.02,1.55-9.18h-4.88c-.18,3.13-.37,6.11-1.35,9.24l4.68-.06ZM59.88,78.13c-1.84-2.95-3.19-5.83-4.19-9.14l-4.41.04c1.33,3.49,3.2,6.42,5.56,9.14l3.03-.04ZM66.16,78.16c-1.28-3.06-2.2-5.88-2.88-9.16h-6.19c1,3.35,2.45,6.21,4.37,9.14l4.69.02ZM74.61,78.17c-.44-3.1-.78-6.04-1.05-9.18h-8.96c.68,3.2,1.62,6.13,2.96,9.16l7.04.02ZM84.1,78.16c.47-3.18.82-6.09,1.05-9.17h-10.28c.26,3.15.61,6.01,1.07,9.17h8.16ZM92.48,78.15l.99-2.44c-2.57-1.98-4.57-4.28-6.9-6.97l-1.13,9.43,7.04-.02ZM97.6,78.14c-1.1-.5-2.2-1.11-3.12-1.71l-.58,1.72h3.7ZM60.85,79.47l-2.65.08c2.67,2.85,5.88,4.92,9.33,6.47-2.66-1.87-4.76-3.96-6.68-6.55M66.84,79.5l-4.39-.04c2.9,3.48,6.25,6.4,10.55,7.89-2.71-2.06-4.54-4.75-6.16-7.85M74.84,79.47l-6.53.03c2.04,3.88,4.87,7.48,9.3,8.84-1.44-2.9-2.14-5.81-2.77-8.87M81.27,87.74c1.38-2.63,1.93-5.41,2.62-8.27h-7.75c.69,2.91,1.24,5.76,2.66,8.33.42.42.76.7,1.21.94.45-.23.79-.52,1.25-1M91.74,79.53l-6.57-.03c-.64,3.22-1.31,6.21-2.82,8.85,4.55-1.33,7.25-4.91,9.39-8.82M97.55,79.47l-4.39.05c-1.57,3.09-3.43,5.75-6.12,7.85,4.36-1.57,7.82-4.55,10.5-7.9M101.85,79.56c-.96-.08-1.86-.09-2.76-.01-1.9,2.68-4.13,4.73-6.75,6.56,3.59-1.6,6.77-3.7,9.51-6.54"/>
      <path class="cls-5" d="M100.73,96.91h-41.47c-2.21,0-4-1.79-4-4v-2.97c0-2.21,1.79-4,4-4h41.47c2.21,0,4,1.79,4,4v2.97c0,2.21-1.79,4-4,4M94.29,89.98h-28.57c-.55,0-1,.45-1,1v.88c0,.55.45,1,1,1h28.57c.55,0,1-.45,1-1v-.88c0-.55-.45-1-1-1"/>
      <path class="cls-7" d="M64.66,119.02c10.24-.65,20.48-.65,30.71,0-.96-9.22-2.45-18.44-4.46-27.65-7.26.46-14.53.46-21.79,0-2.01,9.22-3.5,18.44-4.46,27.65"/>
      <path class="cls-17" d="M73.93,100.84c-2.22-.02-4.45-.04-6.68-.07.56-3.11,1.18-6.23,1.86-9.34,1.9.12,3.8.21,5.7.26-.32,3.06-.62,6.11-.89,9.15"/>
      <path class="cls-17" d="M92.73,100.77c-2.22.03-4.45.06-6.68.07-.26-3.05-.56-6.1-.88-9.15,1.9-.06,3.8-.14,5.7-.26.68,3.12,1.29,6.23,1.85,9.34"/>
      <path class="cls-17" d="M83.65,107.43c-2.42,0-4.84,0-7.26,0,.12-3.03.26-6.06.42-9.09,2.14.01,4.28.01,6.43,0,.15,3.04.29,6.07.42,9.09"/>
      <path class="cls-17" d="M84.03,118.52c-2.68-.04-5.35-.04-8.03,0,.08-3.01.19-6.03.3-9.06,2.47-.02,4.95-.02,7.42,0,.12,3.02.22,6.04.3,9.06"/>
      <path class="cls-17" d="M94.57,112.2c-2.54-.09-5.07-.15-7.61-.2-.2-3.04-.42-6.08-.68-9.12,2.29,0,4.58-.01,6.87-.03.53,3.12,1,6.23,1.42,9.35"/>
      <path class="cls-17" d="M73.14,112.01c-2.54.04-5.07.11-7.61.2.41-3.11.88-6.23,1.41-9.34,2.29.01,4.58.02,6.87.03-.25,3.05-.48,6.09-.67,9.12"/>
      <path class="cls-17" d="M83.13,96.3c-2.07.02-4.14.02-6.21,0,.08-1.52.17-3.04.25-4.56,1.9.03,3.8.03,5.7,0,.09,1.52.17,3.04.25,4.56"/>
      <path class="cls-17" d="M124.41,99.14c0,3.47-2.82,6.29-6.29,6.29s-6.29-2.82-6.29-6.29,2.82-6.29,6.29-6.29,6.29,2.82,6.29,6.29"/>
      <path class="cls-5" d="M118.12,93.12h-.07s0,0,0,0h-.05c-.12,0-.24,0-.36.02h0s0,0,0,0h0s0,0,0,0l.06.75c.15-.01.29-.02.44-.02v-.75ZM117.12,93.2h0s0,0,0,0c0,0,0,0,0,0h0s0,0,0,0c0,0,0,0,0,0h0s0,0,0,0c0,0,0,0,0,0h0s0,0,0,0,0,0,0,0h0s0,0,0,0c0,0,0,0,0,0h0s0,0,0,0,0,0,0,0h0s0,0,0,0c0,0,0,0,0,0,0,0,0,0,0,0h0s0,0,0,0h0s0,0,0,0c0,0,0,0,0,0,0,0,0,0,0,0h0s0,0,0,0c0,0,0,0,0,0,0,0,0,0,0,0h0s0,0,0,0t0,0s0,0,0,0h0s0,0,0,0c0,0,0,0,0,0h0s0,0,0,0c0,0,0,0,0,0h0s0,0,0,0c0,0,0,0,0,0,0,0,0,0,0,0,0,0-.01,0-.02,0-.01,0-.03,0-.05.01-.01,0-.03,0-.04,0h0s-.01,0-.01,0c0,0,0,0,0,0h0s0,0,0,0c0,0,0,0,0,0h0s0,0,0,0c0,0,0,0,0,0h0s0,0,0,0h0s0,0,0,0h0s0,0,0,0h0s0,0,0,0,0,0,0,0c0,0,0,0,0,0,0,0,0,0,0,0h0s0,0,0,0h0s-.05.01-.08.02l.18.73c.14-.04.28-.07.43-.09l-.12-.74ZM116.16,93.45s-.04.01-.07.02h0s0,0,0,0c0,0,0,0,0,0,0,0,0,0,0,0t0,0s0,0,0,0c0,0,0,0,0,0,0,0,0,0,0,0,0,0,0,0,0,0,0,0,0,0,0,0,0,0,0,0,0,0,0,0,0,0,0,0h0s0,0,0,0c-.09.03-.17.07-.26.1,0,0,0,0,0,0,0,0,0,0,0,0h0s0,0,0,0t0,0s0,0,0,0c0,0,0,0,0,0,0,0,0,0,0,0,0,0,0,0,0,0,0,0,0,0,0,0,0,0,0,0,0,0,0,0,0,0,0,0,0,0,0,0,0,0,0,0,0,0,0,0,0,0,0,0,0,0t0,0s0,0,0,0t0,0s-.02,0-.03.01l.3.69c.13-.06.27-.11.41-.16l-.24-.71ZM115.24,93.85h0c-.12.06-.23.13-.34.2,0,0-.01,0-.02.01h0s0,0,0,0c0,0,0,0-.01,0,0,0,0,0,0,0,0,0,0,0,0,0,0,0-.01,0-.02.01,0,0-.01,0-.02.01l.41.63c.12-.08.25-.15.38-.22l-.36-.66ZM114.41,94.4c-.07.05-.14.11-.2.17h0s0,0,0,0c0,0,0,0-.01,0h0s0,0,0,0c0,0,0,0,0,0h0s0,0,0,0c0,0,0,0,0,0,0,0,0,0,0,0,0,0,0,0,0,0s0,0,0,0c0,0,0,0,0,0,0,0,0,0,0,0t0,0s0,0,0,0h0s0,0,0,0h0s-.08.07-.12.11l.51.55c.11-.1.22-.19.33-.28l-.46-.59ZM113.67,95.08c-.11.12-.22.25-.32.38l.59.46c.09-.12.18-.23.28-.34l-.55-.51ZM113.06,95.87c-.09.14-.18.28-.25.43l.66.35c.07-.13.14-.25.22-.38l-.63-.41ZM112.59,96.75c-.03.06-.05.13-.08.19,0,0,0,0,0,0h0s0,0,0,.01h0s0,0,0,0h0s0,0,0,0h0s0,0,0,.01c0,0,0,0,0,0,0,0,0,0,0,0h0s0,0,0,0,0,0,0,0c0,0,0,0,0,0,0,0,0,0,0,0,0,0,0,0,0,0,0,0,0,0,0,0,0,0,0,0,0,0,0,0,0,0,0,0,0,0,0,0,0,0t0,0s0,0,0,0t0,0s0,0,0,0c0,0,0,0,0,0,0,0,0,0,0,0,0,0,0,0,0,0,0,0,0,0,0,0,0,0,0,0,0,0,0,0,0,0,0,0,0,0,0,0,0,0,0,0,0,0,0,0,0,0,0,0,0,0,0,0,0,0,0,0,0,0,0,0,0,0,0,0,0,0,0,0,0,0,0,0,0,0,0,0,0,0,0,0h0s0,0,0,0c0,0,0,0,0,0,0,0,0,0,0,0h0s0,0,0,0h0s0,0,0,0h0s0,0,0,0c0,0,0,0,0,0,0,0,0,0,0,0h0s0,.01,0,.01c0,0,0,0,0,0,0,.02-.01.03-.02.05l.71.24c.05-.14.1-.28.16-.41l-.69-.3ZM112.27,97.69s0,0,0,.01c-.02.08-.04.15-.05.23h0s0,0,0,0h0s0,0,0,0c0,0,0,0,0,0h0s0,0,0,0,0,0,0,0c0,0,0,0,0,0h0s0,0,0,0c0,0,0,0,0,0,0,0,0,0,0,0h0s0,0,0,0c0,0,0,0,0,0,0,0,0,0,0,0h0s0,.01,0,.02c-.01.06-.02.11-.03.17l.74.12c.02-.14.05-.29.09-.43l-.73-.18ZM112.11,98.68c0,.12-.02.24-.02.37h0v.03h0v.02h0v.02h0v.02h0s.75,0,.75,0c0-.14,0-.27.01-.41l-.75-.06ZM112.87,99.61l-.75.07s0,.07.01.11h0s0,.01,0,.01h0s0,0,0,0h0s0,0,0,0h0s0,0,0,0h0s0,.01,0,.01h0s0,.01,0,.01h0s0,.01,0,.01h0s0,0,0,0h0s0,.02,0,.02c.01.09.03.18.04.28l.74-.13c-.03-.14-.04-.29-.06-.43M113.02,100.47l-.73.19c.04.16.09.32.15.48l.71-.25c-.05-.14-.09-.28-.13-.42M113.31,101.3l-.68.31s0,.01,0,.02t0,0s0,0,0,0h0s0,0,0,0t0,0s0,0,0,0c0,0,0,0,0,0,0,0,0,0,0,0t0,0s0,0,0,0c0,0,0,0,0,0,0,0,0,0,0,0,0,0,0,0,0,0s0,0,0,0c0,0,0,0,0,0,0,0,0,0,0,0,0,0,0,0,0,0,0,0,0,0,0,0,0,0,0,0,0,0,0,0,0,0,0,0,0,0,0,0,0,0s0,0,0,0,0,0,0,0c0,0,0,0,0,0,0,0,0,0,0,0,0,0,0,0,0,0,0,0,0,0,0,0,0,0,0,0,0,0s0,0,0,0c0,0,0,0,0,0,0,0,0,0,0,0,0,0,0,0,0,0,0,0,0,0,0,0h0s0,0,0,0c0,0,0,0,0,0,0,0,0,0,0,0,0,0,0,0,0,0h0s0,0,0,0h0s0,0,0,0c0,0,0,0,0,0,0,0,0,0,0,0h0s0,0,0,0h0s0,0,0,0h0s0,0,0,0c0,0,0,0,0,0,.04.08.08.17.13.25l.66-.36c-.07-.13-.14-.26-.2-.39M113.73,102.06l-.62.42s0,0,0,.01h0s0,0,0,0h0s0,0,0,0h0s0,0,0,0c0,0,0,0,0,0,0,0,0,0,0,0,0,0,0,0,0,0,0,0,0,0,0,0t0,0s0,0,0,0c0,0,0,0,0,0,0,0,0,0,0,0,0,0,0,0,0,0,0,0,0,0,0,0,0,0,0,0,0,0,0,0,0,0,0,0,0,0,0,0,0,0,0,0,0,0,0,0,0,0,0,0,0,0,0,0,0,0,0,0,0,0,0,0,0,0h0s0,0,0,0c0,0,0,0,0,0,0,0,0,0,0,0,0,0,0,0,0,0,0,0,0,0,0,0h0s0,0,0,0c0,0,0,0,0,0,0,0,0,0,0,0,0,0,0,0,0,0,0,0,0,0,0,0h0s0,0,0,0c0,0,0,0,0,0,0,0,0,0,0,0,0,0,0,0,0,0s0,0,0,0c0,0,0,0,0,0,0,0,0,0,0,0,0,0,0,0,0,0s0,0,0,0,0,0,0,0c0,0,0,0,0,0,0,0,0,0,0,0,0,0,0,0,0,0,0,0,0,0,0,0h0s0,0,0,0t0,0s0,0,0,0c0,0,0,0,0,0,0,0,0,0,0,0h0s0,0,0,0h0s0,0,0,0c0,0,0,0,0,0,0,0,0,.01.01.02.05.06.09.12.14.18l.59-.47c-.09-.11-.18-.23-.26-.35M114.27,102.75l-.55.51c.11.12.23.24.36.35l.5-.56c-.11-.1-.21-.2-.31-.31M114.92,103.34l-.46.6h0s0,0,0,0c0,0,0,0,0,0,0,0,0,0,0,0h0s0,0,0,0t0,0s0,0,0,0,0,0,0,0c0,0,0,0,0,0s0,0,0,0c0,0,0,0,0,0t0,0s0,0,0,0t0,0s0,0,0,0h0s0,0,0,0c0,0,0,0,0,0,0,0,0,0,0,0,0,0,0,0,0,0,0,0,0,0,0,0,0,0,0,0,0,0,0,0,0,0,0,0,0,0,0,0,0,0,0,0,0,0,0,0h0s0,0,0,0h0s0,0,0,0c.1.07.2.14.31.21l.4-.63c-.12-.08-.24-.16-.36-.25M115.66,103.81l-.35.66s.04.02.06.03h0s0,0,0,0c0,0,0,0,0,0,0,0,0,0,0,0s0,0,0,0c0,0,0,0,0,0,0,0,0,0,0,0t0,0s0,0,0,0h0s0,0,0,0c0,0,0,0,0,0h0c.06.03.13.06.19.09,0,0,0,0,0,0h.01s0,0,0,0c0,0,0,0,0,0,0,0,0,0,0,0,0,0,0,0,0,0,0,0,0,0,0,0,0,0,0,0,0,0,0,0,0,0,0,0,0,0,0,0,0,0,0,0,0,0,0,0,0,0,0,0,0,0,0,0,0,0,0,0,.03.01.06.03.09.04l.29-.69c-.13-.06-.27-.12-.39-.19M116.46,104.15l-.24.71s0,0,0,0c0,0,0,0,0,0,0,0,0,0,0,0,0,0,0,0,0,0,0,0,0,0,0,0,0,0,0,0,0,0,0,0,0,0,0,0,0,0,0,0,0,0s0,0,0,0c0,0,0,0,0,0h0s0,0,0,0h0s0,0,0,0h0s0,0,0,0h0s0,0,0,0c0,0,0,0,0,0,0,0,0,0,.01,0h0s0,0,0,0c0,0,.01,0,.01,0,0,0,0,0,0,0h0s0,0,.01,0c0,0,0,0,0,0h0s0,0,.01,0c0,0,0,0,0,0s0,0,0,0c0,0,0,0,.01,0h0s0,0,0,0h0s0,0,0,0h0s0,0,0,0h0s0,0,0,0h0s0,0,0,0h0s0,0,0,0h0s0,0,0,0c0,0,0,0,0,0,0,0,0,0,0,0h0s0,0,0,0,0,0,0,0t0,0s0,0,0,0t0,0s0,0,0,0h0s0,0,0,0h0s0,0,0,0h0s0,0,0,0c0,0,0,0,0,0,0,0,0,0,0,0,0,0,0,0,0,0,0,0,0,0,0,0,0,0,0,0,0,0,0,0,0,0,0,0,0,0,0,0,0,0,0,0,0,0,0,0,0,0,0,0,0,0,0,0,0,0,0,0,0,0,0,0,0,0,0,0,0,0,0,0s0,0,0,0c0,0,0,0,0,0s0,0,0,0h0s0,0,0,0c0,0,0,0,0,0,0,0,0,0,0,0,0,0,0,0,0,0,0,0,0,0,0,0,0,0,0,0,0,0,0,0,0,0,0,0,0,0,0,0,0,0h0s0,0,0,0h0s0,0,0,0h0s0,0,0,0h0s0,0,0,0h0s0,0,0,0h0s0,0,0,0c0,0,0,0,0,0,0,0,0,0,0,0,0,0,0,0,0,0,0,0,0,0,0,0h0s0,0,.01,0h0s.01,0,.01,0l.18-.73c-.14-.03-.28-.08-.42-.12M117.31,104.35l-.11.74s.01,0,.02,0c0,0,0,0,0,0h0s0,0,0,0h0s0,0,0,0h0s.01,0,.01,0h0c.14.02.29.04.43.05l.05-.75c-.15,0-.29-.03-.43-.05M118.62,104.39c-.14.01-.29.02-.44.02v.75c.09,0,.16,0,.24,0h.01s0,0,0,0h.01s0,0,0,0h.01c.05,0,.1,0,.15-.01,0,0,0,0,0,0h0s0,0,0,0h0s0,0,0,0h0s.02,0,.03,0l-.07-.75ZM119.48,104.24c-.14.04-.28.07-.43.1l.13.74s0,0,0,0h0s0,0,.01,0c0,0,0,0,0,0,0,0,0,0,0,0h0s0,0,0,0c0,0,0,0,0,0h0s0,0,0,0c0,0,0,0,0,0,0,0,0,0,0,0h0s0,0,0,0h0s0,0,.01,0c.14-.03.28-.06.41-.09l-.19-.72ZM120.31,103.94c-.13.06-.27.12-.4.16l.25.71s0,0,0,0c0,0,0,0,0,0,0,0,0,0,0,0s0,0,0,0c0,0,0,0,0,0,0,0,0,0,0,0,0,0,0,0,0,0,0,0,0,0,0,0,0,0,0,0,0,0,0,0,0,0,0,0,0,0,0,0,0,0,0,0,0,0,0,0,0,0,0,0,0,0,0,0,0,0,0,0,0,0,0,0,0,0h0s0,0,0,0t0,0s0,0,0,0t0,0s0,0,0,0t0,0s0,0,0,0c0,0,0,0,0,0,0,0,0,0,0,0,0,0,0,0,0,0,0,0,0,0,0,0,0,0,0,0,0,0,0,0,0,0,0,0,0,0,0,0,0,0s0,0,0,0c0,0,0,0,0,0,0,0,0,0,0,0,0,0,0,0,0,0,0,0,0,0,0,0,0,0,0,0,0,0,0,0,0,0,0,0h0s0,0,0,0h0s0,0,0,0t0,0s0,0,0,0c0,0,0,0,0,0,0,0,0,0,0,0,0,0,0,0,0,0,0,0,0,0,0,0,0,0,0,0,0,0,0,0,0,0,0,0,0,0,0,0,0,0,0,0,0,0,0,0,0,0,0,0,0,0,0,0,0,0,0,0,0,0,0,0,0,0,0,0,0,0,0,0t0,0s0,0,0,0t0,0s0,0,0,0c0,0,0,0,0,0,0,0,0,0,0,0h0s0,0,.01,0c0,0,0,0,0,0,0,0,0,0,0,0t0,0s0,0,0,0h0s0,0,0,0c0,0,0,0,0,0,0,0,0,0,0,0h0s0,0,0,0h0s0,0,.01,0c0,0,0,0,0,0,0,0,0,0,0,0,0,0,0,0,.01,0h0s0,0,0,0c.05-.02.1-.04.15-.06l-.31-.68ZM121.07,103.51c-.12.08-.24.16-.37.23l.37.65c.12-.07.24-.14.36-.22,0,0,0,0,.01,0,0,0,0,0,0,0,0,0,0,0,0,0h0s0,0,.01,0h0s0,0,0,0c0,0,0,0,0,0,0,0,0,0,0,0,0,0,0,0,0,0l-.42-.62ZM121.75,102.96c-.11.1-.22.2-.33.29l.47.58c.13-.1.26-.21.38-.33l-.52-.54ZM122.33,102.31c-.09.12-.18.23-.28.34l.56.5c.11-.12.22-.25.32-.39l-.6-.45ZM122.8,101.57c-.07.13-.14.26-.22.38l.64.4s.06-.1.09-.15h0s0,0,0,0t0,0s0,0,0-.01c0,0,0,0,0,0,0,0,0,0,0,0h0s0,0,0,0t0,0s0,0,0,0t0,0s0,0,0,0c0,0,0,0,0,0,0,0,0,0,0,0,0,0,0,0,0,0,0,0,0,0,0,0,0,0,0,0,0,0,0,0,0,0,0,0,0,0,0,0,0,0,0,0,0,0,0,0,0,0,0,0,0,0,0,0,0,0,0,0s0,0,0,0c0,0,0,0,0,0,0,0,0,0,0,0h0s0,0,0,0,0,0,0,0c0,0,0,0,0,0,0,0,0,0,0,0,0,0,0,0,0,0,0,0,0,0,0,0,0,0,0,0,0,0,0,0,0,0,0,0,0,0,0,0,0,0,0,0,0,0,0,0,0,0,0,0,0,0,0,0,0,0,0,0,0,0,0,0,0,0,0,0,0,0,0,0,0,0,0,0,0,0h0s0,0,0,0t0,0s0,0,0,0t0,0s0,0,0,0h0s0,0,0,0h0s0,0,0,0c0,0,0,0,0,0,0,0,0,0,0,0h0s0,0,0,0c0,0,0,0,0,0h0s0,0,0,0h0s0,0,0,0c0,0,0,0,0-.01h0s0,0,0,0c0-.02.02-.03.03-.05l-.67-.35ZM123.14,100.77c-.04.14-.1.28-.15.41l.69.29s0,0,0,0c0,0,0,0,0,0,0,0,0,0,0,0,0,0,0,0,0,0h0s0,0,0,0h0s0,0,0-.01h0s0,0,0,0c0,0,0,0,0,0,0,0,0,0,0-.01h0s0,0,0,0c0,0,0,0,0,0h0s0,0,0,0h0s0,0,0,0h0s0,0,0,0c0,0,0-.01,0-.01h0s0,0,0,0c0,0,0,0,0-.01,0,0,0,0,0,0,0,0,0-.01,0-.02h0c.04-.1.07-.2.1-.3l-.71-.23ZM123.34,99.92c-.02.15-.05.29-.08.43l.73.17s0-.04.01-.06c0,0,0-.01,0-.01h0s0,0,0,0h0s0,0,0,0h0s0,0,0,0h0s0,0,0,0h0s0,0,0,0,0,0,0,0,0,0,0,0h0s0,0,0,0c0,0,0,0,0,0s0,0,0,0c0,0,0,0,0,0h0s0,0,0,0,0,0,0,0c0,0,0,0,0,0h0s0,0,0,0h0s0,0,0,0h0s0,0,0,0h0s0,0,0,0c0,0,0,0,0,0,0,0,0,0,0,0,0,0,0,0,0,0,0,0,0,0,0,0,0,0,0,0,0,0h0s0,0,0-.01h0s0,0,0,0c0,0,0,0,0-.01,0,0,0-.01,0-.02h0s0-.02,0-.02c0,0,0-.01,0-.02.01-.06.02-.12.03-.17l-.74-.11ZM124.14,99.03h-.75v.11c0,.11,0,.23-.01.34l.75.05s0-.03,0-.05h0s0,0,0,0h0v-.02h0s0,0,0,0h0s0-.01,0-.02h0c0-.06,0-.11,0-.16v-.02h0s0,0,0-.01h0v-.02h0v-.02h0v-.02h0v-.02h0v-.02h0v-.02h0v-.08h0s0-.02,0-.03M124.04,98.03l-.74.14c.03.14.05.29.06.43l.75-.07s0-.08-.01-.12c0,0,0-.01,0-.02h0s0,0,0-.01c0,0,0,0,0,0,0,0,0,0,0,0h0s0,0,0-.01h0s0,0,0,0h0s0,0,0-.01c0,0,0,0,0,0h0s0-.02,0-.02h0s0,0,0-.01c0,0,0-.01,0-.02s0-.02,0-.02h0s0-.02,0-.02c0-.03,0-.06-.01-.08,0,0,0-.01,0-.02,0,0,0-.02,0-.02t0,0s0,0,0,0c0,0,0,0,0,0h0s0,0,0,0h0s0,0,0,0t0,0h0s0,0,0,0h0M123.78,97.07l-.7.26c.05.14.09.27.13.42l.72-.2s-.01-.04-.02-.06h0s0,0,0,0h0s0,0,0,0c0,0,0,0,0,0,0,0,0,0,0,0,0,0,0,0,0,0s0,0,0,0c0,0,0,0,0,0,0,0,0,0,0,0,0,0,0,0,0,0h0c-.04-.13-.08-.25-.12-.37M123.36,96.16l-.65.37c.07.13.14.26.2.39l.68-.32c-.04-.08-.07-.15-.11-.23,0,0,0,0,0,0h0s0,0,0,0h0s0,0,0,0h0s0,0,0,0c0,0,0,0,0,0,0,0,0,0,0,0,0,0,0,0,0,0h0s0,0,0,0c0,0,0,0,0,0,0,0,0,0,0,0,0,0,0,0,0,0,0,0,0,0,0,0,0,0,0,0,0,0,0,0,0,0,0,0,0,0,0,0,0,0,0,0,0,0,0,0h0s0,0,0-.01c-.02-.04-.05-.08-.07-.13M122.79,95.34l-.58.47c.09.11.18.23.26.35l.62-.42c-.04-.06-.08-.11-.12-.17,0,0,0,0,0,0,0,0,0,0,0-.01,0,0,0,0,0,0,0,0,0,0,0,0h0s0,0,0-.01h0s0,0,0,0t0,0s0,0,0,0c0,0,0,0,0,0,0,0,0,0,0,0h0s0,0,0,0c0,0,0,0,0,0,0,0,0,0,0,0s0,0,0,0c0,0,0,0,0,0h0s0,0,0,0c0,0,0,0,0,0,0,0,0,0,0,0,0,0,0,0,0,0s0,0,0,0h0s0,0,0,0c0,0,0,0,0,0,0,0,0,0,0,0h0s0,0,0,0c0,0,0,0,0,0,0,0,0,0,0,0,0,0,0,0,0,0s0,0,0,0,0,0,0,0c0,0,0,0,0,0,0,0,0,0,0,0,0,0,0,0,0,0s0,0,0,0c0,0,0,0,0,0,0,0,0,0,0,0h0s0,0,0,0h0s0,0,0-.01c-.01-.02-.03-.04-.05-.06M122.1,94.62l-.5.56c.11.1.21.2.32.3l.54-.52c-.11-.12-.23-.23-.36-.34h0s0,0,0,0M121.3,94.02l-.4.64c.12.08.25.16.36.25l.45-.6s0,0,0,0c0,0,0,0,0,0,0,0,0,0,0,0h0s0,0,0,0,0,0,0,0h0s0,0,0,0c0,0,0,0,0,0,0,0,0,0,0,0,0,0,0,0,0,0,0,0,0,0,0,0,0,0,0,0,0,0,0,0,0,0,0,0h0s0,0,0,0c0,0,0,0,0,0,0,0,0,0,0,0s0,0,0,0c0,0,0,0,0,0,0,0,0,0,0,0,0,0,0,0,0,0h0s0,0,0,0c0,0,0,0,0,0s0,0,0,0h0s0,0,0,0t0,0s0,0,0,0h0s0,0,0,0c0,0,0,0,0,0h0s0,0,0,0c0,0,0,0-.01,0,0,0,0,0,0,0h0s0,0,0,0c0,0,0,0-.01,0,0,0,0,0,0,0,0,0,0,0-.01,0,0,0,0,0,0,0t0,0s0,0,0,0c0,0,0,0-.01,0h0s0,0,0,0h0s-.01,0-.02-.01h0s0,0,0,0c0,0,0,0,0,0,0,0,0,0-.01,0h0s0,0,0,0h0s0,0,0,0h0s0,0,0,0h0s0,0,0,0c0,0,0,0,0,0,0,0,0,0,0,0t0,0s0,0,0,0h0s0,0,0,0c0,0,0,0,0,0s0,0,0,0c0,0,0,0,0,0,0,0,0,0,0,0,0,0,0,0,0,0,0,0,0,0,0,0,0,0,0,0,0,0,0,0,0,0,0,0,0,0,0,0,0,0,0,0,0,0,0,0,0,0,0,0,0,0,0,0,0,0,0,0,0,0,0,0,0,0s0,0,0,0,0,0,0,0h0s0,0,0,0c0,0,0,0,0,0,0,0,0,0,0,0,0,0,0,0,0,0,0,0,0,0,0,0h0s0,0-.01,0h0s0,0,0,0h0s-.02-.01-.03-.02M120.41,93.57l-.29.69c.14.06.27.12.4.18l.34-.67c-.07-.04-.15-.08-.22-.11,0,0-.01,0-.02,0h0s0,0,0,0h0s0,0-.01,0h0s0,0,0,0c0,0,0,0,0,0h0s0,0,0,0h0s0,0,0,0h0s0,0,0,0c0,0,0,0,0,0h0s0,0,0,0c0,0,0,0,0,0t0,0h0s0,0,0,0h0s0,0,0,0c0,0,0,0,0,0h0s0,0,0,0c0,0,0,0,0,0,0,0,0,0,0,0-.03-.01-.05-.02-.08-.03M119.46,93.27l-.17.73c.14.03.28.07.42.12l.23-.72c-.11-.03-.22-.07-.33-.09h0s0,0,0,0c0,0-.01,0-.01,0h0s0,0,0,0h0s0,0,0,0c0,0,0,0,0,0h0s0,0,0,0t0,0s0,0,0,0c0,0,0,0,0,0s0,0,0,0,0,0,0,0c0,0,0,0,0,0,0,0,0,0,0,0h0s0,0,0,0h0s0,0-.01,0c0,0,0,0,0,0-.01,0-.03,0-.04,0M118.47,93.13l-.04.75c.15,0,.29.02.44.04l.1-.74s-.07,0-.11-.01h0s0,0,0,0c0,0,0,0,0,0h0s0,0,0,0h0s0,0,0,0c0,0,0,0,0,0-.12-.01-.23-.02-.35-.03"/>
      <path class="cls-5" d="M118.69,100.42c0-.12-.02-.23-.06-.31-.04-.08-.1-.15-.19-.22-.09-.06-.2-.12-.35-.18-.3-.12-.57-.25-.8-.38-.23-.13-.41-.29-.54-.49-.13-.19-.2-.45-.2-.76,0-.28.07-.53.21-.74.14-.21.33-.37.58-.49.25-.12.53-.17.86-.17.25,0,.47.04.67.11.2.07.38.18.53.32.15.14.26.31.34.51.08.2.12.42.12.68h-1.15c0-.13-.01-.24-.04-.33-.03-.09-.06-.17-.11-.23-.05-.06-.1-.1-.17-.13-.06-.03-.13-.04-.21-.04-.11,0-.21.02-.28.07-.07.05-.12.11-.15.19-.03.08-.05.17-.05.27,0,.1.02.19.05.27s.1.15.18.21c.09.06.21.13.36.2.3.12.56.26.79.39.23.13.42.3.55.49.13.2.2.45.2.75s-.07.55-.21.76c-.14.21-.33.37-.58.48-.25.11-.54.16-.86.16-.22,0-.43-.03-.65-.09-.22-.06-.41-.15-.59-.28-.18-.13-.32-.3-.42-.51-.1-.21-.16-.48-.16-.79h1.15c0,.15.02.28.06.38.04.1.09.18.15.24.06.06.13.1.21.13s.16.04.25.04c.12,0,.21-.02.28-.07.07-.05.13-.11.16-.19.04-.08.05-.17.05-.26M118.46,102.48h-.54v-.92h.54v.92ZM118.53,96.97h-.54v-.99h.54v.99Z"/>
      <path class="cls-17" d="M49.48,99.14c0,3.47-2.82,6.29-6.29,6.29s-6.29-2.82-6.29-6.29,2.82-6.29,6.29-6.29,6.29,2.82,6.29,6.29"/>
      <path class="cls-5" d="M43.18,93.12h-.06s0,0,0,0h-.05c-.12,0-.24,0-.36.02h0s0,0,0,0h-.01s0,0,0,0l.06.75c.15-.01.29-.02.44-.02v-.75ZM42.19,93.2h0s0,0,0,0c0,0,0,0,0,0,0,0,0,0,0,0h0s0,0,0,0h0s0,0,0,0t0,0h0s0,0,0,0,0,0,0,0h0s0,0,0,0c0,0,0,0,0,0,0,0,0,0,0,0h0s0,0,0,0h0s0,0,0,0c0,0,0,0,0,0,0,0,0,0,0,0h0s0,0,0,0h0s0,0,0,0c0,0,0,0,0,0,0,0,0,0,0,0h0s0,0,0,0c0,0,0,0,0,0,0,0,0,0,0,0h0s0,0,0,0c0,0,0,0,0,0,0,0,0,0,0,0h0s0,0,0,0h0s0,0,0,0h0s0,0,0,0c0,0,0,0,0,0,0,0,0,0-.01,0,0,0,0,0,0,0-.05.01-.09.02-.14.03h0s-.01,0-.02,0h0s0,0,0,0h0s0,0,0,0h0s0,0,0,0h0s0,0,0,0h0s0,0,0,0c0,0,0,0,0,0,0,0,0,0,0,0,0,0,0,0,0,0,0,0,0,0,0,0,0,0,0,0,0,0h0s0,0,0,0c-.02,0-.05.01-.07.02l.18.73c.14-.04.28-.07.43-.09l-.12-.74ZM41.22,93.45s-.05.02-.07.03c0,0-.01,0-.01,0h0s0,0,0,0h0s0,0,0,0t0,0s0,0,0,0c0,0,0,0,0,0,0,0,0,0,0,0,0,0,0,0,0,0,0,0,0,0,0,0,0,0,0,0,0,0s0,0,0,0c0,0,0,0,0,0,0,0,0,0,0,0,0,0,0,0-.01,0h0s0,0,0,0c-.06.02-.13.05-.19.07t0,0s0,0,0,0c0,0,0,0,0,0,0,0,0,0,0,0,0,0,0,0,0,0,0,0,0,0,0,0,0,0,0,0,0,0,0,0,0,0,0,0,0,0,0,0,0,0,0,0,0,0,0,0,0,0,0,0,0,0h0s0,0,0,0h0s0,0,0,0h0s0,0,0,0h0s0,0,0,0c-.02,0-.03.01-.05.02l.3.69c.13-.06.27-.11.41-.16l-.24-.71ZM40.31,93.85s-.04.02-.06.03c0,0-.01,0-.02.01h0s0,0,0,0h0s0,0-.01,0h0s0,0,0,0h0s0,0,0,0h0s0,0,0,0c0,0,0,0,0,0,0,0,0,0,0,0,0,0,0,0,0,0,0,0,0,0,0,0,0,0,0,0,0,0,0,0,0,0,0,0t0,0s0,0,0,0t0,0s0,0,0,0t0,0s0,0,0,0c0,0,0,0,0,0,0,0,0,0,0,0,0,0,0,0,0,0s0,0,0,0t0,0s0,0,0,0c0,0,0,0,0,0,0,0,0,0,0,0t0,0s0,0,0,0t0,0s0,0,0,0,0,0,0,0h0s0,0,0,0c0,0,0,0,0,0h0s0,0,0,0t0,0s0,0,0,0h0s0,0,0,0h0s0,0,0,0c0,0,0,0,0,0,0,0,0,0,0,0h0s0,0-.01,0c0,0,0,0,0,0,0,0,0,0,0,0-.05.03-.11.07-.16.1l.41.63c.12-.08.25-.15.38-.22l-.36-.66ZM39.47,94.4s-.01,0-.02.01c0,0,0,0-.01,0,0,0,0,0,0,0h0s0,0,0,0c0,0,0,0,0,0,0,0,0,0,0,0t0,0s0,0,0,0t0,0s0,0,0,0c0,0,0,0,0,0,0,0,0,0,0,0,0,0,0,0,0,0h0s0,0,0,0h0s0,0,0,0h0s0,0,0,0t0,0s0,0,0,0c0,0,0,0,0,0,0,0,0,0,0,0,0,0,0,0,0,0t0,0s0,0,0,0t0,0s0,0,0,0h0s0,0-.01,0t0,0s0,0,0,0h0s0,.01-.01.01c0,0-.02.01-.02.02-.06.05-.12.1-.18.15h0s0,0,0,0c0,0,0,0,0,0h0l.51.55c.11-.1.22-.19.33-.28l-.46-.59ZM38.74,95.08s0,0,0,0c0,0,0,0,0,0h0s0,0,0,0c0,0,0,0,0,0h0s0,0,0,0c0,0,0,0,0,0s0,0,0,0c0,0,0,0,0,0,0,0,0,0,0,0s0,0,0,0c0,0,0,0,0,0,0,0,0,0,0,0,0,0,0,0,0,0h0s0,0,0,0h0s0,0,0,0t0,0s0,0,0,0h0s0,0-.01.01c0,0,0,0,0,0h0c-.08.1-.17.19-.24.3l.59.46c.09-.12.18-.23.28-.34l-.55-.51ZM38.13,95.87s0,0,0,0c0,0,0,0,0,0s0,0,0,0c0,0,0,0,0,0,0,0,0,0,0,0t0,0s0,0,0,0h0s0,0,0,0t0,0s0,0,0,0h0s0,0,0,0c0,0,0,.01-.01.02h0c-.08.12-.15.24-.21.37l.66.35c.07-.13.14-.25.22-.38l-.63-.41ZM37.66,96.75s-.03.08-.05.12c0,0,0,0,0,0,0,0,0,0,0,0h0s0,0,0,0c0,0,0,0,0,0,0,0,0,0,0,0,0,0,0,0,0,0,0,0,0,0,0,0,0,0,0,0,0,0,0,0,0,0,0,0,0,0,0,0,0,.01-.04.1-.08.2-.11.3l.71.24c.05-.14.1-.28.16-.41l-.69-.3ZM37.34,97.69s-.01.04-.02.07c0,0,0,0,0,0h0s0,0,0,0,0,0,0,0c0,0,0,0,0,0,0,0,0,0,0,0h0s0,0,0,0t0,0s0,0,0,0c0,0,0,0,0,0h0s0,0,0,0h0c-.03.12-.05.24-.07.37l.74.12c.02-.14.05-.29.09-.43l-.73-.18ZM37.18,98.68c0,.12-.01.24-.02.37h0v.03h0v.02h0v.02h0v.02h0s.75,0,.75,0c0-.14,0-.27.01-.41l-.75-.06ZM37.93,99.61l-.75.07c0,.06.01.12.02.18,0,0,0,0,0,0,0,0,0,.01,0,.01h0s0,0,0,0h0s0,0,0,.01h0s0,0,0,0h0s0,0,0,0h0s0,0,0,0h0s0,0,0,0h0s0,.01,0,.01h0s0,0,0,0h0s0,.01,0,.02c0,.07.02.14.03.21l.74-.13c-.03-.14-.04-.29-.06-.43M38.08,100.47l-.73.19s.02.09.04.14c0,0,0,0,0,.01,0,0,0,0,0,0h0s0,.02,0,.02h0s0,0,0,.01c0,0,0,0,0,0h0s0,0,0,0h0s0,0,0,0c0,0,0,0,0,.01h0s0,0,0,0c0,0,0,0,0,.01h0s0,0,0,0h0c.02.07.05.15.07.22l.71-.25c-.05-.14-.09-.28-.13-.42M38.37,101.3l-.68.31s0,0,0,0h0s0,0,0,0t0,0s0,0,0,.01c0,0,0,0,0,0,0,0,0,0,0,0h0s0,0,0,0h0s0,0,0,0h0s0,0,0,0h0s0,0,0,0h0s0,0,0,0c0,0,0,0,0,0,0,0,0,0,0,0,0,0,0,0,0,0,0,0,0,0,0,0,0,0,0,0,0,0,0,0,0,0,0,0,0,0,0,0,0,0s0,0,0,0c0,0,0,0,0,0,0,0,0,0,0,0,0,0,0,0,0,0,0,0,0,0,0,0,0,0,0,0,0,0,0,0,0,0,0,0,0,0,0,0,0,0,0,0,0,0,0,0,0,0,0,0,0,0,0,0,0,0,0,0,0,0,0,0,0,0,0,0,0,0,0,0h0s0,0,0,0c0,0,0,0,0,0h0s0,0,0,0h0s0,0,0,0c0,0,0,0,0,0,0,0,0,0,0,0h0s0,0,0,.01c0,0,0,0,0,0h0s0,.01,0,.02c.02.05.05.1.08.15,0,0,0,.01.01.02h0s0,0,0,0c0,0,0,0,0,0,0,0,0,0,0,0,0,0,0,0,0,0s0,0,0,0t0,0s0,0,0,0c0,0,0,0,0,0,0,0,0,0,0,0,0,0,0,0,0,0,0,0,0,0,0,0s0,0,0,0c0,0,0,0,0,0s0,0,0,0h0s0,0,0,0l.66-.36c-.07-.13-.14-.26-.2-.39M38.79,102.06l-.62.42c.09.13.19.26.28.39,0,0,0,0,0,0h0s0,0,0,0h0s.59-.47.59-.47c-.09-.11-.18-.23-.26-.35M39.34,102.75l-.55.51s.06.06.08.09h0s0,0,0,0t0,0s0,0,0,0,0,0,0,0h0s0,0,0,0h0s0,0,0,0h0s0,0,0,0c0,0,0,0,0,0,0,0,0,0,0,0t0,0s0,0,0,0c0,0,0,0,0,0,0,0,0,0,0,0h0s0,0,0,0h0s0,0,0,0h0s0,0,.01.01c0,0,0,0,0,0,0,0,0,0,0,0,0,0,0,0,0,0,0,0,0,0,.01.01h0s0,0,0,0h0s0,0,.01.01h0s0,0,0,0h0s0,0,0,0c0,0,0,0,0,0,0,0,0,0,0,.01h0s0,0,0,0c0,0,0,0,0,0,0,0,0,0,0,0,0,0,0,0,0,0h0s0,0,0,0h0s0,0,0,0c0,0,0,0,0,0,0,0,0,0,0,0,0,0,0,0,0,0,0,0,0,0,0,0,0,0,0,0,0,0,0,0,0,0,0,0,0,0,0,0,0,0,0,0,0,0,0,0,0,0,0,0,0,0,0,0,0,0,0,0s0,0,0,0h0s0,0,0,0,0,0,0,0c0,0,0,0,0,0s0,0,0,0c0,0,0,0,0,0,0,0,0,0,0,0s0,0,0,0c0,0,0,0,0,0,0,0,.01,0,.02.01.01.01.03.03.04.04l.5-.56c-.11-.1-.21-.2-.31-.31M39.99,103.34l-.46.6c.13.1.27.2.41.29l.4-.63c-.12-.08-.24-.16-.36-.25M40.72,103.81l-.35.66s.02.01.03.02h0s0,0,0,0h0s0,0,0,0h0s0,0,0,0t0,0s0,0,0,0c0,0,0,0,0,0,0,0,0,0,0,0,0,0,0,0,0,0,0,0,0,0,0,0,0,0,0,0,0,0t0,0s0,0,0,0c0,0,0,0,0,0,0,0,0,0,0,0,0,0,0,0,0,0,0,0,0,0,0,0,0,0,0,0,0,0,.06.03.13.06.19.09,0,0,0,0,0,0h0s0,0,.01,0h0s0,0,0,0t0,0s0,0,0,0c0,0,0,0,0,0,0,0,0,0,0,0,0,0,0,0,0,0,0,0,0,0,0,0,0,0,0,0,0,0,0,0,0,0,0,0,0,0,0,0,0,0,0,0,0,0,0,0h0s0,0,0,0c0,0,0,0,.01,0,0,0,0,0,0,0h0s.05.02.07.03l.29-.69c-.13-.06-.27-.12-.4-.19M41.53,104.15l-.23.71c.14.05.28.09.42.12h0s0,0,0,0h0s0,0,0,0h0s0,0,0,0c0,0,0,0,0,0s0,0,0,0c0,0,0,0,0,0s0,0,0,0c0,0,0,0,0,0,0,0,0,0,0,0,0,0,0,0,0,0,0,0,0,0,.01,0l.17-.73c-.14-.03-.28-.08-.42-.12M42.38,104.35l-.11.74s.1.01.14.02c0,0,0,0,0,0h0s0,0,0,0c0,0,0,0,.01,0h0s0,0,0,0h0s0,0,.01,0h0s0,0,0,0h0s0,0,0,0h0s0,0,0,0h0s0,0,0,0c0,0,0,0,0,0h0s0,0,0,0c0,0,0,0,0,0h0s0,0,0,0h0s0,0,0,0h0s0,0,0,0h0s0,0,0,0h0s0,0,0,0h0s0,0,0,0h0s0,0,0,0h0s0,0,0,0h0s0,0,.01,0c0,0,0,0,0,0h0s.01,0,.02,0c0,0,0,0,0,0h0s0,0,.01,0c0,0,0,0,0,0h0s0,0,.01,0h0s0,0,0,0h0s0,0,.01,0h0s0,0,0,0h0s0,0,0,0h0s0,0,0,0h0s0,0,0,0h0s0,0,0,0h0l.05-.75c-.15,0-.29-.03-.43-.05M43.69,104.39c-.14.01-.29.02-.44.02v.75c.07,0,.14,0,.2,0h.01s0,0,0,0h0c.09,0,.17,0,.26-.02h0s0,0,0,0h0s0,0,0,0h0l-.07-.75ZM44.55,104.24c-.14.04-.28.07-.43.1l.13.74s0,0,0,0h0s0,0,0,0h0s0,0,0,0h0s0,0,0,0,0,0,0,0c0,0,0,0,0,0h0s0,0,0,0h0c.1-.02.2-.04.3-.06,0,0,0,0,0,0h0s0,0,0,0t0,0s0,0,0,0c0,0,0,0,0,0s0,0,0,0c0,0,0,0,0,0s0,0,0,0c0,0,0,0,0,0,0,0,0,0,0,0,0,0,0,0,0,0h0s0,0,0,0h0s.06-.01.08-.02l-.19-.72ZM45.37,103.94c-.13.06-.27.12-.4.16l.25.71s.04-.01.06-.02c0,0,.01,0,.02,0,0,0,0,0,0,0h0s0,0,.01,0c0,0,0,0,0,0h0s0,0,0,0t0,0s0,0,0,0h0s0,0,0,0h0s0,0,0,0h0s0,0,0,0c0,0,0,0,0,0,0,0,0,0,0,0t0,0s0,0,0,0c0,0,0,0,0,0s0,0,0,0c0,0,0,0,0,0,0,0,0,0,0,0,0,0,0,0,0,0,0,0,0,0,0,0,0,0,0,0,0,0,0,0,0,0,0,0,0,0,0,0,0,0,0,0,0,0,0,0,0,0,0,0,0,0h0s0,0,0,0c0,0,0,0,0,0h0c.08-.03.17-.07.25-.11l-.31-.68ZM46.13,103.51c-.12.08-.25.16-.37.23l.37.65h0s0,0,0,0c.09-.05.18-.1.27-.16,0,0,0,0,.01,0,0,0,0,0,0,0,0,0,0,0,0,0,0,0,0,0,0,0,0,0,0,0,0,0t0,0s0,0,0,0c0,0,0,0,0,0,0,0,0,0,0,0h0s0,0,0,0c0,0,0,0,0,0t0,0s0,0,0,0t0,0s0,0,0,0h0s0,0,0,0c0,0,0,0,0,0t0,0s0,0,0,0c.02-.01.04-.03.06-.04l-.42-.62ZM46.82,102.96c-.11.1-.22.2-.33.29l.47.58s.04-.03.06-.04c0,0,0,0,0,0h0s0,0,0,0h0s0,0,0,0t0,0s0,0,0,0c0,0,0,0,0,0,0,0,0,0,0,0,0,0,0,0,0,0,0,0,0,0,0,0,0,0,0,0,0,0,0,0,0,0,0,0,0,0,0,0,0,0s0,0,0,0c0,0,0,0,0,0,0,0,0,0,0,0,0,0,0,0,0,0,0,0,0,0,0,0s0,0,0,0h0s0,0,0,0c0,0,0,0,0,0h0s0,0,0,0,0,0,0,0c0,0,0,0,0,0,0,0,0,0,0,0s0,0,0,0c0,0,0,0,0,0s0,0,0,0c0,0,0,0,0,0h0s0,0,0,0h0s0,0,0,0c0,0,0,0,0,0h0s0,0,0,0h0s0,0,0,0,0,0,0,0c0,0,0,0,0,0,0,0,0,0,0,0,0,0,0,0,0,0h0s0,0,0,0t0,0s0,0,0,0t0,0s0,0,0,0c0,0,0,0,0,0,0,0,0,0,0,0h0s0,0,0,0c0,0,0,0,0,0,0,0,0,0,0,0,0,0,0,0,0,0,0,0,0,0,0,0h0s0,0,0,0t0,0s0,0,0,0h0s0,0,0,0c0,0,0,0,0,0,0,0,0,0,0,0h0s0,0,0,0,0,0,0,0h0s0,0,0,0c0,0,0,0,0,0,0,0,0,0,.01-.01,0,0,0,0,0,0t0,0s0,0,0,0h0s0,0,0-.01t0,0s0,0,0,0h0s0,0,0,0h0s0,0,0,0h0s0,0,0,0h0s0,0,0,0c0,0,0,0,0,0,0,0,0,0,0,0,0,0,0,0,0,0,0,0,0,0,0,0,0,0,0,0,0,0,0,0,0,0,0,0,0,0,0,0,0,0h0s0,0,0,0c0,0,0,0,0,0,0,0,0,0,0,0h0s0,0,0,0l-.52-.54ZM47.4,102.31c-.09.12-.18.23-.28.34l.56.5s0,0,0,0c0,0,0,0,0,0h0s0,0,0-.01c0,0,0,0,0,0,0,0,0,0,0,0s0,0,0,0h0s0,0,0,0c0,0,0,0,0,0,0,0,0,0,0,0h0s0,0,.01-.01c.09-.11.18-.22.26-.33l-.6-.45ZM47.87,101.57c-.07.13-.14.26-.22.38l.63.4s.04-.07.06-.1c0,0,0,0,0,0s0,0,0,0h0s0,0,0,0c0,0,0,0,0,0,0,0,0,0,0,0,0,0,0,0,0,0,0,0,0,0,0,0,0,0,0,0,0,0s0,0,0,0c0,0,0,0,0,0,0,0,0,0,0,0,0,0,0,0,0,0s0,0,0,0c0,0,0,0,0,0t0,0c.05-.09.1-.18.15-.28l-.67-.35ZM48.2,100.77c-.05.14-.1.28-.15.41l.69.29s.03-.08.05-.12c0,0,0,0,0-.01,0,0,0,0,0,0,0,0,0,0,0,0t0,0s0,0,0,0t0,0s0,0,0,0h0s0,0,0,0h0s0,0,0,0c0,0,0,0,0,0,0,0,0,0,0,0,0,0,0,0,0,0t0,0s0,0,0,0,0,0,0,0c0,0,0,0,0,0,0,0,0,0,0,0,0,0,0,0,0,0,0,0,0,0,0,0,0,0,0,0,0,0h0s0,0,0,0t0,0s0,0,0,0c0,0,0,0,0,0,0,0,0,0,0,0h0s0,0,0,0h0s0,0,0,0h0s0,0,0,0c0,0,0,0,0,0,0,0,0,0,0,0,0,0,0,0,0,0,0,0,0,0,0,0h0s0-.01,0-.01c0,0,0,0,0,0,0,0,0,0,0,0h0s0,0,0,0c0,0,0,0,0,0t0,0s0,0,0,0h0s0,0,0,0h0s0,0,0-.01h0s0,0,0,0c0,0,0,0,0-.01h0s.02-.07.03-.1l-.71-.23ZM48.4,99.92c-.02.15-.05.29-.08.43l.73.17s0-.04.01-.06c0,0,0-.01,0-.01h0s0,0,0,0h0s0,0,0,0c0,0,0,0,0,0,0,0,0,0,0,0h0s0,0,0,0h0s0,0,0,0c0,0,0,0,0,0,0,0,0,0,0,0h0s0,0,0,0c0,0,0,0,0,0,0,0,0,0,0,0,0,0,0,0,0,0h0s0,0,0-.01h0c.02-.11.04-.22.06-.34l-.74-.11ZM49.21,99.03h-.75s0,.11,0,.11c0,.11,0,.23,0,.34l.75.05s0-.03,0-.05h0s0,0,0,0h0v-.02h0s0,0,0,0h0s0-.01,0-.02h0c0-.06,0-.11,0-.16v-.02h0s0,0,0-.01h0v-.02h0v-.02h0v-.02h0v-.02h0v-.02h0v-.02h0v-.08h0s0-.02,0-.03M49.11,98.03l-.74.14c.03.14.05.29.06.43l.75-.07s0-.05,0-.07c0,0,0,0,0,0h0s0-.01,0-.01h0s0,0,0,0h0s0,0,0,0h0s0,0,0,0h0s0,0,0,0h0s0,0,0-.01t0,0h0s0,0,0-.01h0s0,0,0,0h0s0,0,0,0h0s0,0,0,0h0s0,0,0,0c0,0,0,0,0,0h0s0-.01,0-.01t0,0h0s0,0,0,0h0s0,0,0,0h0s0,0,0,0h0s0,0,0,0c0,0,0,0,0,0h0s0,0,0,0h0s0,0,0,0h0s0,0,0,0h0s0,0,0,0h0s0,0,0,0,0,0,0,0h0s0,0,0,0c0,0,0,0,0,0h0s0,0,0,0h0s0,0,0,0h0s0,0,0,0h0s0,0,0,0t0,0h0s0,0,0,0,0,0,0,0h0s0,0,0,0h0s0,0,0,0c0,0,0,0,0,0h0s0,0,0,0c0,0,0,0,0,0h0s0,0,0,0h0s0,0,0,0c0,0,0,0,0,0h0s0,0,0,0c0,0,0,0,0,0h0s0,0,0,0h0s0,0,0,0c0,0,0,0,0,0,0,0,0,0,0,0h0s0,0,0,0c0,0,0,0,0,0h0s0-.04,0-.05M48.84,97.07l-.71.26c.05.14.1.27.13.42l.72-.2c-.03-.09-.05-.18-.08-.27h0s0,0,0,0c0,0,0,0,0,0,0,0,0,0,0,0h0s0,0,0,0c0,0,0,0,0,0s0,0,0,0c0,0,0,0,0,0,0,0,0,0,0,0,0,0,0,0,0,0,0,0,0,0,0,0,0,0,0,0,0,0h0s0,0,0,0,0,0,0,0c0,0,0,0,0,0h0s0,0,0,0c0,0,0,0,0,0,0,0,0,0,0,0h0s0,0,0,0h0s0,0,0,0h0s0,0,0,0h0s0,0,0,0c0,0,0,0,0-.01-.01-.03-.02-.05-.03-.08M48.42,96.16l-.65.37c.07.13.14.26.2.39l.68-.32s0-.02-.01-.02h0s0,0,0,0c0,0,0,0,0,0,0,0,0,0,0,0,0,0,0,0,0,0,0,0,0,0,0,0,0,0,0,0,0,0,0,0,0,0,0,0,0,0,0,0,0,0,0,0,0,0,0,0s0,0,0,0c0,0,0,0,0,0,0,0,0,0,0,0h0s0,0,0-.01h0s0,0,0,0h0s0,0,0,0c0,0,0,0,0,0s0,0,0,0c0,0,0,0,0,0,0,0,0,0,0,0,0,0,0-.01,0-.01,0,0,0,0,0,0,0,0,0-.01-.01-.02,0,0,0,0,0,0h0s0,0,0-.01h0s0,0,0,0h0s0,0,0,0h0s0,0,0,0c0,0,0,0,0,0t0,0s0,0,0,0h0s0,0,0,0c0,0,0,0,0,0t0,0s0,0,0,0h0s0,0,0,0,0,0,0,0c0,0,0,0,0,0,0,0,0,0,0,0,0,0,0,0,0,0s0,0,0,0c0,0,0,0,0,0,0,0,0,0,0,0,0,0,0,0,0,0,0,0,0,0,0,0,0,0,0,0,0,0,0,0,0,0,0,0,0,0,0,0,0,0,0,0,0,0,0,0,0,0,0,0,0,0,0,0,0,0,0,0,0,0,0,0,0,0,0,0,0,0,0,0h0s0,0,0-.01h0s0,0,0,0h0s0,0,0-.01h0s-.04-.07-.06-.11M47.86,95.34l-.58.47c.09.11.18.23.26.35l.62-.42s0,0,0,0h0s0,0,0,0c0,0,0,0,0,0h0s0,0,0,0h0s0,0,0,0t0,0s0,0,0,0t0,0s0,0,0,0c0,0,0,0,0,0,0,0,0,0,0,0,0,0,0,0,0,0,0,0,0,0,0,0h0s0,0,0,0c0,0,0,0,0,0s0,0,0,0,0,0,0,0h0s0,0,0,0c0,0,0,0,0,0,0,0,0,0,0,0,0,0,0,0,0,0,0,0,0,0,0,0,0,0,0,0,0,0,0,0,0,0,0,0,0,0,0,0,0,0s0,0,0,0,0,0,0,0c0,0,0,0,0,0,0,0,0,0,0,0,0,0,0,0,0,0,0,0,0,0,0,0,0,0,0,0,0,0h0s0,0,0,0c0,0,0,0,0,0,0,0,0,0,0,0,0,0,0,0,0,0,0,0,0,0,0,0,0,0,0,0,0,0,0,0,0,0,0,0s0,0,0,0c0,0,0,0,0,0,0,0,0,0,0,0s0,0,0,0c0,0,0,0,0,0,0,0,0,0,0,0,0,0,0,0,0,0,0,0,0,0,0,0,0,0,0,0,0,0s0,0,0,0h0s0,0,0,0,0,0,0,0c0,0,0,0,0,0,0,0,0,0,0,0,0,0,0,0,0,0,0,0,0,0,0,0,0,0,0,0,0,0,0,0,0,0,0,0,0,0,0,0,0,0,0,0,0,0,0,0,0,0,0,0,0,0,0,0,0,0,0,0t0,0s0,0,0,0h0s0,0,0,0h0s0,0,0,0h0s0,0,0,0c-.04-.05-.08-.1-.12-.15M47.16,94.62l-.5.56c.11.1.22.2.32.3l.54-.52s-.05-.05-.07-.07c0,0,0,0,0,0t0,0s0,0,0,0c0,0,0,0,0,0,0,0,0,0,0,0,0,0,0,0,0,0s0,0,0,0c0,0,0,0,0,0,0,0,0,0,0,0,0,0,0,0,0,0h0s0,0,0,0h0s0,0,0,0h0s0,0,0,0c-.07-.07-.15-.14-.23-.21,0,0,0,0,0,0,0,0,0,0,0,0M46.36,94.02l-.4.64c.12.08.24.16.36.25l.45-.6s0,0,0,0c0,0,0,0,0,0,0,0,0,0,0,0t0,0s0,0,0,0c0,0,0,0,0,0,0,0,0,0,0,0,0,0,0,0,0,0,0,0,0,0,0,0,0,0,0,0,0,0s0,0,0,0c0,0,0,0,0,0s0,0,0,0,0,0,0,0c0,0,0,0,0,0,0,0,0,0,0,0,0,0,0,0,0,0,0,0,0,0,0,0,0,0,0,0,0,0,0,0,0,0,0,0h0s0,0,0,0c0,0,0,0,0,0h0s0,0,0,0h0s0,0-.01,0c0,0,0,0,0,0,0,0,0,0,0,0,0,0,0,0,0,0,0,0,0,0,0,0,0,0,0,0-.01,0,0,0,0,0,0,0,0,0,0,0,0,0h0s0,0-.01,0c0,0,0,0,0,0,0,0,0,0,0,0,0,0,0,0,0,0,0,0,0,0,0,0,0,0,0,0,0,0t0,0s0,0,0,0c0,0,0,0,0,0,0,0,0,0,0,0,0,0,0,0,0,0,0,0,0,0,0,0,0,0,0,0,0,0,0,0,0,0,0,0h0s0,0,0,0,0,0,0,0c0,0,0,0,0,0,0,0,0,0,0,0,0,0,0,0,0,0,0,0,0,0,0,0s0,0,0,0c0,0,0,0,0,0,0,0,0,0,0,0,0,0,0,0,0,0,0,0,0,0,0,0,0,0,0,0,0,0,0,0,0,0,0,0s0,0,0,0h0s0,0,0,0t0,0s0,0,0,0t0,0s0,0,0,0c0,0,0,0,0,0,0,0,0,0,0,0h0s0,0,0,0h0s0,0,0,0c0,0,0,0,0,0,0,0,0,0,0,0,0,0,0,0-.01,0h0s0,0,0,0h0s0,0,0,0c0,0,0,0-.01,0h0s0,0,0,0c0,0-.01,0-.02-.01h0s0,0,0,0c0,0,0,0-.01,0,0,0,0,0,0,0,0,0,0,0,0,0h0s0,0,0,0c0,0,0,0,0,0h0s0,0,0,0h0s0,0,0,0c0,0,0,0,0,0h0M45.47,93.57l-.28.69c.14.06.27.12.4.18l.34-.67s-.01,0-.02,0c0,0,0,0,0,0,0,0,0,0-.01,0,0,0,0,0,0,0,0,0,0,0,0,0,0,0,0,0,0,0,0,0,0,0,0,0,0,0,0,0,0,0s0,0,0,0t0,0s0,0,0,0c0,0,0,0,0,0,0,0,0,0,0,0,0,0,0,0,0,0,0,0,0,0,0,0,0,0,0,0,0,0,0,0,0,0,0,0,0,0,0,0,0,0s0,0,0,0c0,0,0,0,0,0,0,0,0,0,0,0,0,0,0,0,0,0,0,0,0,0,0,0,0,0,0,0,0,0,0,0,0,0,0,0,0,0,0,0,0,0,0,0,0,0,0,0,0,0,0,0,0,0,0,0,0,0,0,0,0,0,0,0,0,0,0,0,0,0,0,0,0,0,0,0,0,0,0,0,0,0,0,0,0,0,0,0,0,0h0s0,0,0,0c0,0,0,0,0,0,0,0,0,0,0,0,0,0,0,0,0,0,0,0,0,0,0,0,0,0,0,0,0,0,0,0,0,0,0,0,0,0,0,0,0,0,0,0,0,0,0,0h0s0,0,0,0c0,0,0,0,0,0,0,0,0,0,0,0,0,0,0,0,0,0,0,0,0,0,0,0t0,0s0,0,0,0c0,0,0,0,0,0,0,0,0,0,0,0,0,0,0,0,0,0,0,0,0,0,0,0,0,0,0,0,0,0,0,0,0,0,0,0,0,0,0,0,0,0h0s0,0,0,0c0,0,0,0,0,0,0,0,0,0,0,0,0,0,0,0,0,0s0,0,0,0c0,0,0,0,0,0,0,0,0,0,0,0,0,0,0,0,0,0,0,0,0,0,0,0,0,0,0,0,0,0,0,0,0,0,0,0,0,0,0,0,0,0,0,0,0,0,0,0,0,0,0,0,0,0,0,0,0,0,0,0,0,0,0,0,0,0,0,0,0,0,0,0,0,0,0,0,0,0,0,0,0,0,0,0,0,0,0,0,0,0,0,0,0,0,0,0,0,0,0,0,0,0,0,0,0,0,0,0,0,0,0,0,0,0,0,0,0,0,0,0,0,0,0,0,0,0,0,0,0,0,0,0,0,0,0,0,0,0,0,0,0,0,0,0,0,0,0,0,0,0,0,0,0,0,0,0,0,0,0,0,0,0,0,0,0,0,0,0,0,0,0,0,0,0,0,0,0,0,0,0,0,0,0,0,0,0,0,0,0,0,0,0,0,0,0,0,0,0,0,0,0,0,0,0,0,0,0,0,0,0,0,0,0,0,0,0,0,0,0,0,0,0t0,0s0,0,0,0c0,0,0,0,0,0,0,0,0,0,0,0,0,0,0,0,0,0,0,0,0,0,0,0,0,0,0,0,0,0,0,0,0,0,0,0,0,0,0,0,0,0h0s0,0,0,0c0,0,0,0,0,0,0,0,0,0,0,0,0,0,0,0,0,0,0,0,0,0,0,0,0,0,0,0,0,0,0,0,0,0,0,0,0,0,0,0,0,0t0,0M44.52,93.27l-.17.73c.14.03.28.07.42.12l.23-.72s0,0,0,0c0,0,0,0,0,0t0,0s0,0,0,0h0s0,0,0,0h0s0,0,0,0c0,0,0,0,0,0,0,0,0,0,0,0h0s0,0,0,0h0s0,0,0,0h0s0,0,0,0c0,0,0,0,0,0,0,0,0,0,0,0h0c-.1-.03-.2-.06-.3-.08,0,0,0,0,0,0,0,0-.01,0-.01,0h0s0,0,0,0h0s0,0,0,0c0,0,0,0,0,0h0s0,0,0,0c0,0,0,0,0,0,0,0,0,0,0,0h0s0,0,0,0h0s0,0,0,0h0s0,0,0,0c0,0,0,0,0,0,0,0,0,0,0,0,0,0,0,0,0,0s0,0,0,0h0s0,0,0,0M43.53,93.13l-.04.75c.15,0,.29.02.44.04l.1-.74s-.05,0-.08,0c0,0,0,0,0,0h0s0,0,0,0h0s0,0,0,0h0s0,0,0,0h0s0,0,0,0h0s0,0,0,0h0s0,0,0,0c-.12-.01-.24-.03-.37-.03"/>
      <path class="cls-5" d="M43.76,100.42c0-.12-.02-.23-.06-.31-.04-.08-.1-.15-.19-.22-.09-.06-.2-.12-.35-.18-.3-.12-.57-.25-.8-.38-.23-.13-.41-.29-.54-.49-.13-.19-.2-.45-.2-.76,0-.28.07-.53.21-.74s.33-.37.58-.49c.25-.12.53-.17.85-.17.25,0,.47.04.67.11.2.07.38.18.53.32.15.14.26.31.34.51.08.2.12.42.12.68h-1.15c0-.13-.01-.24-.04-.33-.03-.09-.06-.17-.11-.23-.05-.06-.1-.1-.17-.13-.06-.03-.13-.04-.21-.04-.11,0-.21.02-.28.07-.07.05-.12.11-.15.19-.03.08-.05.17-.05.27,0,.1.02.19.05.27.03.08.1.15.18.21.09.06.2.13.36.2.3.12.56.26.79.39.23.13.42.3.55.49.13.2.2.45.2.75s-.07.55-.21.76c-.14.21-.33.37-.58.48-.25.11-.54.16-.86.16-.22,0-.43-.03-.65-.09-.22-.06-.41-.15-.59-.28-.18-.13-.32-.3-.42-.51s-.16-.48-.16-.79h1.15c0,.15.02.28.06.38.04.1.09.18.15.24.06.06.13.1.21.13.08.03.16.04.25.04.12,0,.21-.02.28-.07.07-.05.13-.11.16-.19.03-.08.05-.17.05-.26M43.53,102.48h-.54v-.92h.54v.92ZM43.6,96.97h-.54v-.99h.54v.99Z"/>
    </g>
  </g>
</svg>